#define image_width 86
#define image_height 64
static char image_bits[] = {
0x00,0x00,0x00,0x00,0x00,0x00,0x00,0x00,0x00,0xc0,0x3f,0x00,0x00,0x00,0x00,
0x00,0x00,0x00,0x00,0x00,0xc0,0x3f,0x00,0x00,0x00,0x00,0x00,0x00,0x00,0x00,
0x00,0xc0,0x3f,0x00,0x00,0x00,0x00,0x00,0x00,0x00,0x00,0x00,0xc0,0x3f,0x00,
0x00,0x00,0x00,0x00,0x00,0x00,0x00,0x00,0xc0,0x3f,0x00,0x00,0x00,0x00,0x00,
0x00,0x00,0x00,0x00,0xc0,0x3f,0x00,0x00,0x00,0x00,0x00,0x00,0x00,0x00,0x00,
0xc0,0x3f,0x00,0x00,0x00,0x00,0x00,0x00,0x00,0x00,0x00,0xc0,0x3f,0x00,0x00,
0x00,0x00,0x00,0x00,0x00,0x00,0x00,0xc0,0x3f,0x00,0x00,0x00,0x00,0x00,0x00,
0x00,0x00,0x00,0xc0,0x3f,0x00,0x00,0x00,0x00,0x00,0x00,0x00,0x00,0x00,0xc0,
0x1f,0x00,0x00,0x00,0x00,0x00,0x00,0x00,0x00,0x00,0xc0,0x03,0x00,0x00,0x00,
0x00,0x00,0x00,0x00,0x00,0x00,0x80,0x00,0x00,0x00,0x00,0x00,0x00,0x00,0x00,
0x00,0x00,0x00,0x00,0x00,0x00,0x00,0x00,0x00,0x00,0x00,0x00,0x00,0x20,0x00,
0x00,0x00,0x00,0x00,0x00,0x00,0x00,0x00,0x00,0x30,0x00,0x00,0x00,0x00,0x00,
0x00,0x00,0x00,0x00,0x00,0x70,0x00,0x00,0x00,0x00,0x00,0x00,0x00,0x00,0x00,
0x00,0x3f,0x00,0x00,0x00,0x00,0x00,0x00,0x00,0x00,0x00,0x80,0x3d,0x00,0x00,
0x00,0x00,0x00,0x00,0x00,0x00,0x00,0x80,0x39,0x00,0x00,0x00,0x00,0x00,0x00,
0x00,0x00,0x00,0x80,0x7c,0x00,0x00,0x00,0x00,0x00,0x00,0x00,0x00,0x00,0x80,
0x3d,0x00,0x00,0x00,0x00,0x00,0x00,0x00,0x00,0x00,0xe0,0x7d,0x00,0x00,0x00,
0x00,0x00,0x00,0x00,0x00,0x00,0xf0,0x7f,0x00,0x00,0x00,0x00,0x00,0x00,0x00,
0x00,0x00,0xe0,0x3f,0x00,0x00,0x00,0x00,0x00,0x00,0x00,0xf0,0xff,0xff,0x3f,
0x00,0x00,0x00,0x00,0x00,0xfe,0x00,0xf8,0xff,0xff,0x3f,0x00,0x00,0x00,0x00,
0x80,0xff,0xff,0xff,0xff,0xff,0x3f,0x00,0x00,0x00,0x00,0x80,0xff,0xff,0xff,
0x8f,0xff,0x3f,0x00,0x00,0x00,0x00,0x00,0xff,0xff,0xff,0x07,0xf0,0x3f,0x00,
0x00,0x00,0x00,0x00,0x00,0x00,0x20,0x00,0xf0,0x7f,0x00,0x00,0x00,0x00,0x00,
0x00,0x00,0x00,0x00,0x10,0x7f,0x00,0x00,0x00,0x00,0x00,0x00,0x00,0x00,0x00,
0x00,0x7f,0x00,0x00,0x00,0x00,0x00,0x00,0x00,0x00,0x00,0x10,0x7e,0x00,0x00,
0x00,0x00,0x00,0x00,0x00,0x00,0x00,0x10,0x7e,0x30,0x00,0x00,0x00,0x00,0x00,
0x00,0x00,0x00,0x10,0x7e,0x30,0x00,0x00,0x00,0x00,0x00,0x00,0x00,0x00,0x10,
0x7e,0x38,0x00,0x00,0x00,0x00,0x00,0x00,0x00,0x00,0x18,0x7f,0x38,0x00,0x00,
0x00,0x00,0x00,0x00,0x00,0x00,0x0c,0x7f,0x38,0x00,0x00,0x00,0x00,0x00,0x00,
0x00,0x00,0x04,0x7f,0x38,0x00,0x00,0x00,0x00,0x00,0x00,0x00,0x00,0x06,0x7f,
0x38,0x00,0x00,0x00,0x00,0x00,0x00,0x00,0x00,0x83,0x7f,0x30,0x00,0x00,0x00,
0x00,0x00,0x00,0x00,0x80,0x81,0x7f,0x30,0x00,0x00,0x00,0x00,0x00,0x00,0x00,
0x00,0x80,0x7f,0x20,0x00,0x00,0x00,0x00,0x00,0x00,0x00,0x00,0xc0,0x7f,0x00,
0x00,0x00,0x00,0x00,0x00,0x00,0x00,0x00,0xc0,0x7f,0x00,0x00,0x00,0x00,0x00,
0x00,0x00,0x00,0x00,0xe0,0x7f,0x00,0x00,0x00,0x00,0x00,0x00,0x00,0x00,0x00,
0xe0,0x7f,0x00,0x00,0x00,0x00,0x00,0x00,0x00,0x00,0x00,0xf0,0x7f,0x00,0x00,
0x00,0x00,0x00,0x00,0x00,0x00,0x00,0xf0,0x7f,0x00,0x00,0x00,0x00,0x00,0x00,
0x00,0x00,0x00,0xf0,0x7f,0x00,0x00,0x00,0x00,0x00,0x00,0x00,0x00,0x00,0xf0,
0x7f,0x00,0x00,0x00,0x00,0x00,0x00,0x00,0x00,0x00,0xf0,0x7f,0x00,0x00,0x00,
0x00,0x00,0x00,0x00,0x00,0x00,0xf8,0x7f,0x00,0x00,0x00,0x00,0x00,0x00,0x00,
0x00,0x00,0xf8,0x7f,0x00,0x00,0x00,0x00,0x00,0x00,0x00,0x00,0x00,0xfc,0x7f,
0x00,0x00,0x00,0x00,0x00,0x00,0x00,0x00,0x00,0xfc,0x3f,0x00,0x00,0x00,0x00,
0x00,0x00,0x00,0x00,0x00,0xf8,0x3f,0x00,0x00,0x00,0x00,0x00,0x00,0x00,0x00,
0x00,0xf0,0x3f,0x00,0x00,0x00,0x00,0x00,0x00,0x00,0x00,0x00,0xe0,0x3f,0x00,
0x00,0x00,0x00,0x00,0x00,0x00,0x00,0x00,0x80,0x3f,0x00,0x00,0x00,0x00,0x00,
0x00,0x00,0x00,0x00,0x00,0x3f,0x03,0x00,0x00,0x00,0x00,0x00,0x00,0x00,0x00,
0x00,0x3f,0x03,0x00,0x00,0x00,0x00,0x00,0x00,0x00,0x00,0x00,0x3e,0x03
};