#define image_width 86
#define image_height 64
static char image_bits[] = {
0x00,0x00,0x00,0x00,0x00,0x00,0x00,0x00,0x00,0x00,0x00,0x00,0x00,0x00,0x00,
0x00,0x00,0x00,0x00,0x00,0x00,0x00,0x00,0x00,0x00,0x00,0x00,0x00,0x00,0x00,
0x00,0x00,0x00,0x00,0x00,0x00,0x00,0x00,0x00,0x00,0x00,0x00,0x00,0x00,0x00,
0x00,0x00,0x00,0x00,0x00,0x00,0x00,0x00,0x00,0x00,0x00,0x00,0x00,0x00,0x00,
0x00,0x00,0x00,0x00,0x00,0x00,0x00,0x00,0x00,0x00,0x00,0x00,0x00,0x00,0x00,
0x00,0x00,0x00,0x00,0x00,0x00,0x00,0x00,0x00,0x00,0x00,0x00,0x00,0x00,0x00,
0x00,0x00,0x00,0x00,0x00,0x00,0x00,0x00,0x00,0x00,0x00,0x00,0x00,0x00,0x00,
0x00,0x00,0x00,0x00,0x00,0x00,0x00,0x00,0x00,0x00,0x00,0x00,0x00,0x00,0x00,
0x00,0x00,0x00,0x00,0x00,0x00,0x00,0x00,0x00,0x00,0x00,0x00,0x00,0x00,0x00,
0x00,0x00,0x00,0x00,0x00,0x00,0x00,0x00,0x00,0x00,0x00,0x00,0x00,0x00,0x00,
0x00,0x00,0x00,0x00,0x00,0x00,0x00,0x00,0x00,0x00,0x00,0x00,0x00,0x00,0x00,
0x00,0x00,0x00,0x00,0x00,0x00,0x00,0x00,0x00,0x00,0x00,0x00,0x00,0x00,0x00,
0x00,0x00,0x00,0x00,0x00,0x00,0x00,0x00,0x00,0x00,0x00,0x00,0x00,0x00,0x00,
0x00,0x00,0x00,0x00,0x00,0x00,0x00,0x00,0x00,0x00,0x00,0x00,0x00,0x00,0x00,
0x00,0x00,0x00,0x00,0x00,0x00,0x00,0x00,0x00,0x00,0x00,0x00,0x00,0x00,0x00,
0x00,0x00,0x00,0x00,0x00,0x00,0x00,0x00,0x00,0x00,0x00,0x00,0x00,0x00,0x00,
0x00,0x00,0x00,0x00,0x00,0x00,0x00,0x00,0x00,0x00,0x00,0x00,0x00,0x00,0x00,
0x00,0x00,0x60,0x60,0x30,0x00,0x00,0x00,0x00,0x00,0x00,0x00,0xc0,0xe0,0x70,
0x70,0x08,0x00,0x00,0x00,0x00,0x00,0x00,0xc3,0x61,0x20,0x30,0x1c,0x00,0x00,
0x00,0x00,0x00,0x80,0xc3,0x00,0x00,0x00,0x1c,0x03,0x00,0x00,0x00,0x00,0x80,
0x03,0x00,0x00,0x00,0x88,0x03,0x00,0x00,0x00,0x00,0x38,0x00,0x00,0x00,0x00,
0x80,0x03,0x00,0x00,0x00,0x00,0x38,0x00,0x00,0x00,0x00,0x80,0x0f,0x00,0x00,
0x00,0x00,0x3c,0x00,0x00,0x00,0x00,0x00,0x1e,0x00,0x00,0x00,0x00,0x1c,0x00,
0x00,0x00,0x00,0x00,0x1e,0x00,0x00,0x00,0x00,0x3c,0x00,0x00,0x00,0x00,0x80,
0x0f,0x00,0x00,0x00,0x00,0x7c,0x00,0x00,0x00,0x00,0x80,0x07,0x00,0x00,0x00,
0x00,0xf0,0x00,0x00,0x00,0x00,0x9e,0x07,0x00,0x00,0x00,0x00,0xf0,0x1c,0x00,
0x00,0x00,0x1f,0x00,0x00,0x00,0x00,0x00,0x40,0x3c,0xa0,0xc0,0x03,0x1f,0x00,
0x00,0x00,0x00,0x00,0x00,0x3c,0xf4,0xe1,0x0f,0x04,0x00,0x00,0x00,0x00,0x00,
0x00,0x10,0xfc,0xf3,0x0f,0x00,0x00,0x00,0x00,0x00,0x00,0x00,0x20,0xfc,0xff,
0x0f,0x01,0x00,0x00,0x00,0x00,0x00,0x00,0x60,0xff,0xff,0xdf,0x01,0x00,0x00,
0x00,0x00,0x00,0x00,0xe0,0xff,0xff,0xff,0x11,0x00,0x00,0x00,0x00,0x00,0x00,
0xec,0xff,0xff,0xff,0x0d,0x00,0x00,0x00,0x00,0x00,0x00,0xf8,0xff,0xff,0xff,
0x07,0x00,0x00,0x00,0x00,0x00,0x00,0xf8,0xff,0xff,0xff,0x27,0x00,0x00,0x00,
0x00,0x00,0x00,0xfc,0xff,0xff,0xff,0x1f,0x00,0x00,0x00,0x00,0x00,0x00,0xfc,
0x7f,0x80,0xff,0x0f,0x00,0x00,0x00,0x00,0x00,0x00,0xf8,0x0f,0x00,0xff,0x07,
0x00,0x00,0x00,0x00,0x00,0x00,0xf8,0x0f,0x00,0xfe,0x07,0x00,0x00,0x00,0x00,
0x00,0x00,0xf8,0x0f,0x00,0xfc,0x07,0x00,0x00,0x00,0x00,0x00,0x00,0xf8,0x0f,
0x00,0xfc,0x07,0x00,0x00,0x00,0x00,0x00,0x00,0xf8,0x4f,0x80,0xfc,0x07,0x00,
0x00,0x00,0x00,0x00,0x00,0xf0,0xff,0xe1,0xff,0x03,0x00,0x00,0x00,0x00,0x00,
0x00,0xf0,0xff,0xff,0xff,0x01,0x00,0x00,0x00,0x00,0x00,0x00,0xc0,0xff,0xff,
0xff,0x00,0x00,0x00,0x00,0x00,0x00,0x00,0x80,0xff,0xff,0x3f,0x00,0x00,0x00,
0x00,0x00,0x00,0x00,0x00,0xfc,0xff,0x0f,0x00,0x00,0x00,0x00,0x00,0x00,0x00,
0x00,0xc0,0xff,0x00,0x00,0x00,0x00,0x00,0x00,0x00,0x00,0x00,0x00,0x00,0x00,
0x00,0x00,0x00,0x00,0x00,0x00,0x00,0x00,0x00,0x00,0x00,0x00,0x00,0x00,0x00,
0x00,0x00,0x00,0x00,0x00,0x00,0x00,0x00,0x00,0x00,0x00,0x00,0x00,0x00,0x00,
0x00,0x00,0x00,0x00,0x00,0x00,0x00,0x00,0x00,0x00,0x00,0x00,0x00,0x00,0x00,
0x00,0x00,0x00,0x00,0x00,0x00,0x00,0x00,0x00,0x00,0x00,0x00,0x00,0x00
};