#define image_width 86
#define image_height 64
static char image_bits[] = {
0x00,0x00,0x00,0x00,0x00,0x00,0x00,0x00,0x00,0x00,0x00,0x00,0x00,0x00,0x00,
0x00,0x00,0x00,0x00,0x00,0x00,0x00,0x00,0x00,0x00,0x00,0x00,0x00,0x00,0x00,
0x00,0x00,0x00,0x00,0x00,0x00,0x00,0x00,0x00,0x00,0x00,0x00,0x00,0x00,0x00,
0x00,0x00,0x00,0x00,0x00,0x00,0x00,0x00,0x00,0x00,0x00,0x00,0x00,0x00,0x00,
0x00,0x00,0x00,0x00,0x00,0x00,0x00,0x00,0x00,0x00,0x00,0x00,0x00,0x00,0x00,
0x00,0x00,0x00,0x00,0x00,0x00,0x00,0x00,0x00,0x00,0x00,0x00,0x00,0x00,0x00,
0x00,0x00,0x00,0x00,0x00,0x00,0x00,0x00,0x00,0x00,0x00,0x00,0x00,0x00,0x00,
0x00,0x00,0x00,0x00,0x00,0x00,0x00,0x00,0x00,0x00,0x00,0x00,0x00,0x00,0x00,
0x00,0x00,0x00,0x00,0x00,0x00,0x00,0x00,0x00,0x00,0x00,0x00,0x00,0x00,0x00,
0x00,0x00,0x00,0x00,0x00,0x00,0x00,0x00,0x00,0x00,0x00,0x00,0x00,0x00,0x00,
0x00,0x00,0x00,0x00,0x00,0x00,0x00,0x00,0x00,0x00,0x00,0x00,0x00,0x00,0x00,
0x00,0x00,0x00,0x00,0x00,0x00,0x00,0x00,0x00,0x00,0x00,0x00,0x00,0x00,0x00,
0x00,0x00,0x00,0x00,0x00,0x00,0x00,0x00,0x00,0x00,0x00,0x00,0x00,0x00,0x00,
0x00,0x00,0x00,0x00,0x00,0x00,0x00,0x00,0x00,0x00,0x00,0x00,0x00,0x00,0x00,
0x00,0x00,0x00,0x00,0x00,0x00,0x00,0x00,0x00,0x00,0x00,0x00,0x00,0x00,0x00,
0x00,0x00,0x00,0x00,0x00,0x00,0x00,0x00,0x00,0x00,0x00,0x00,0x00,0x00,0x00,
0x00,0x00,0x00,0x00,0x00,0x00,0x00,0x00,0x00,0x00,0x00,0x00,0x00,0x00,0x00,
0x00,0x00,0x00,0x00,0x00,0x00,0x00,0x00,0x00,0x00,0x00,0x00,0x00,0x00,0x00,
0x00,0x00,0x00,0x00,0x00,0x00,0x00,0x00,0x00,0x00,0x00,0x00,0x00,0x00,0x00,
0x00,0x00,0x00,0x00,0x00,0x00,0x00,0x00,0x00,0x00,0x00,0x00,0x00,0x00,0x00,
0x00,0x00,0x00,0x00,0x00,0x00,0x00,0x00,0x00,0x00,0x00,0x00,0x00,0x00,0x00,
0x00,0x00,0x00,0x00,0x00,0x00,0x00,0x00,0x00,0x00,0x00,0x00,0x00,0x00,0x00,
0x00,0x00,0x00,0x00,0x00,0x00,0x00,0x00,0x00,0x00,0x00,0x00,0x00,0x00,0x00,
0x20,0x80,0x01,0x00,0x00,0x00,0x00,0x00,0x00,0x00,0x00,0x70,0xc0,0x01,0x07,
0x00,0x00,0x00,0x00,0x00,0x00,0x1c,0x70,0x80,0x01,0x07,0x00,0x00,0x00,0x00,
0x00,0x00,0x1c,0x00,0x00,0x00,0x03,0x0e,0x00,0x00,0x00,0x00,0x0c,0x08,0x00,
0x00,0x00,0x00,0x0e,0x00,0x00,0x00,0x00,0x0e,0x00,0x00,0x00,0x00,0x00,0x04,
0x00,0x00,0x00,0x00,0x0c,0x00,0x00,0x00,0x00,0x00,0x00,0x02,0x00,0x00,0x08,
0x00,0x00,0x00,0x00,0x00,0x00,0x00,0x0f,0x00,0x00,0x1c,0x00,0x00,0x00,0x00,
0x00,0x00,0x00,0x0f,0x00,0x00,0x1c,0x00,0x00,0x00,0x00,0x00,0x00,0x00,0x06,
0x00,0x00,0x18,0x00,0x00,0x00,0x00,0x00,0x00,0x00,0x00,0x00,0x00,0x00,0x00,
0x00,0x00,0x00,0x00,0x00,0x00,0x60,0x00,0x80,0x03,0x00,0x00,0x00,0x00,0x00,
0x00,0x00,0xf0,0x00,0x80,0x07,0x00,0x00,0x00,0x00,0x00,0x00,0x00,0xf0,0x00,
0x80,0x03,0x00,0x00,0x00,0x00,0x00,0x00,0x00,0x60,0x00,0x00,0x03,0x00,0x00,
0x00,0x00,0x00,0x00,0x00,0x00,0x00,0x00,0x00,0x00,0x00,0x00,0x00,0x00,0x00,
0x00,0x18,0x00,0x00,0x0e,0x06,0x00,0x00,0x00,0x00,0x00,0x08,0x3c,0x00,0x00,
0x1e,0x03,0x00,0x00,0x00,0x00,0x00,0x30,0x7c,0x00,0x00,0xde,0x00,0x00,0x00,
0x00,0x00,0x00,0xc0,0x3c,0x00,0x00,0xfe,0x00,0x00,0xc0,0x7f,0x00,0x00,0x80,
0x11,0x00,0x00,0x70,0x00,0x00,0xf0,0xff,0x01,0x00,0x80,0x03,0x00,0x00,0x38,
0x18,0x00,0xf8,0xff,0x03,0x00,0x1e,0x03,0x00,0x00,0x18,0x3c,0x00,0xf8,0xff,
0x07,0x00,0x1e,0x06,0x00,0x00,0x1c,0x3c,0x00,0xf8,0xff,0x07,0x00,0x1e,0x0e,
0x00,0x00,0x0e,0x1e,0x00,0xf0,0xff,0x03,0x00,0x1e,0x0e,0x00,0x00,0x0e,0x1c,
0x00,0xee,0xff,0x1c,0x00,0x0c,0x1c,0x00,0x00,0x0e,0x00,0x00,0x0f,0x1c,0x3c,
0x00,0x00,0x1c,0x00,0x00,0x0e,0x00,0x00,0x0f,0x00,0x3e,0x00,0x00,0x1c,0x00,
0x00,0x0e,0x00,0x00,0x0f,0x00,0x3c,0x00,0x00,0x0c,0x00,0x00,0x0c,0x00,0x00,
0x0f,0x00,0x1c,0x00,0x00,0x0c,0x00,0x00,0x0c,0x00,0x00,0x00,0x00,0x00,0x00,
0x00,0x04,0x00,0x00,0x00,0x00,0x00,0x00,0x00,0x00,0x00,0x00,0x00,0x00
};