#define image_width 86
#define image_height 64
static char image_bits[] = {
0x00,0x00,0x00,0x00,0x00,0x00,0x00,0x00,0x00,0x00,0x00,0x00,0x00,0x00,0x00,
0x00,0x00,0x00,0x00,0x00,0x00,0x00,0x00,0x00,0x00,0x00,0x00,0x00,0x00,0x00,
0x00,0x00,0x00,0x00,0x00,0x00,0x00,0x00,0x00,0x00,0x00,0x00,0x00,0x00,0x00,
0x00,0x00,0x00,0x00,0x00,0x00,0x00,0x00,0x00,0x00,0x00,0x00,0x00,0x00,0x00,
0x00,0x00,0x00,0x00,0x00,0x00,0x00,0x00,0x00,0x00,0x00,0x00,0x00,0x00,0x00,
0x00,0x00,0x00,0x00,0x00,0x00,0x00,0x00,0x00,0x00,0x00,0x00,0x00,0x00,0x00,
0x00,0x00,0x00,0x00,0x00,0x00,0x00,0x00,0x00,0x00,0x00,0x00,0x00,0x00,0x00,
0x00,0x00,0x00,0x00,0x00,0x00,0x00,0x00,0x00,0x00,0x00,0x00,0x00,0x00,0x00,
0x00,0x00,0x00,0x00,0x00,0x00,0x00,0x00,0x00,0x00,0x00,0x00,0x00,0x00,0x00,
0x00,0x00,0x00,0x00,0x00,0x00,0x00,0x00,0x00,0x00,0x00,0x00,0x00,0x00,0x00,
0x00,0x00,0x00,0x00,0x00,0x00,0x00,0x00,0x00,0x00,0x80,0x03,0x00,0x00,0x00,
0x00,0x00,0x00,0x00,0x00,0x00,0xc0,0x03,0x00,0x00,0x00,0x00,0x00,0x00,0x00,
0x00,0x00,0xc0,0x03,0x00,0x00,0x00,0x00,0x00,0x00,0x00,0x00,0x00,0xf0,0x03,
0x00,0x00,0x00,0x00,0x00,0x00,0x00,0x00,0x00,0xf8,0x1f,0x00,0x00,0x00,0x00,
0x00,0x00,0x00,0x00,0x00,0xe4,0x3f,0x00,0x00,0x00,0x00,0x00,0x00,0x00,0x00,
0x00,0xe0,0x1f,0x00,0x00,0x00,0x00,0x00,0x00,0x00,0x00,0x00,0xe0,0x1f,0x00,
0x00,0x00,0x00,0x00,0x00,0x00,0x00,0x00,0xe0,0x0f,0x00,0x00,0x00,0x00,0x00,
0x00,0x00,0x00,0x00,0xe0,0x07,0x00,0x00,0x00,0x00,0x00,0x00,0x00,0x00,0x00,
0xe0,0x67,0x00,0x00,0x00,0x00,0x00,0x00,0x00,0x00,0x00,0xe0,0x3f,0x00,0x00,
0x00,0x00,0x00,0x00,0x00,0x00,0x00,0xc0,0x3f,0x00,0x00,0x00,0x00,0x00,0x00,
0x00,0x00,0x00,0xc0,0xff,0x07,0x00,0x00,0x00,0x00,0x00,0x00,0x00,0x00,0x80,
0xff,0x0f,0x00,0x00,0x00,0x00,0x00,0x00,0x00,0x00,0xc0,0xff,0x1f,0x00,0x00,
0x00,0x00,0x00,0x00,0x00,0x00,0xe0,0xff,0x1f,0x00,0x00,0x00,0x00,0x00,0x00,
0x00,0x00,0xf0,0xff,0x1f,0x00,0x00,0x00,0x00,0x00,0x00,0x00,0x00,0xfc,0xff,
0x1f,0x00,0x00,0x00,0x00,0x00,0x00,0x00,0x00,0xfc,0xff,0x1f,0x00,0x00,0x00,
0x00,0x00,0x00,0x00,0x00,0xf8,0xff,0x3f,0x00,0x00,0x00,0x00,0x00,0x00,0x00,
0x00,0xd0,0xf9,0x1f,0x00,0x00,0x00,0x00,0x00,0x00,0x00,0x00,0x80,0xb9,0x0f,
0x00,0x00,0x00,0x00,0x00,0x00,0x00,0x00,0x80,0x18,0x01,0x00,0x00,0x00,0x01,
0x00,0x00,0x00,0x00,0x00,0x10,0x00,0x00,0x00,0x00,0x03,0x00,0x00,0x00,0x00,
0x00,0x00,0x00,0x00,0x00,0x80,0x07,0x00,0x00,0x00,0x00,0x00,0x00,0x00,0x00,
0x00,0x80,0x03,0x00,0x00,0x00,0x00,0x00,0x00,0x00,0x00,0x00,0x80,0x07,0x00,
0x00,0x00,0x00,0x00,0x00,0x00,0x00,0x00,0xe0,0x0f,0x00,0x00,0x00,0x00,0x00,
0x00,0x00,0x00,0x00,0xf0,0x1f,0x00,0x00,0x02,0x00,0x00,0x00,0x00,0x00,0x00,
0xf0,0x9f,0x00,0x00,0x07,0x00,0x00,0x00,0x00,0x00,0x00,0xf0,0xdf,0x01,0x00,
0x07,0x00,0x00,0x00,0x00,0x00,0x00,0xf0,0xdf,0x01,0x00,0x07,0x00,0x00,0x00,
0x00,0x00,0x00,0xf0,0xff,0x03,0x00,0x07,0x00,0x00,0x00,0x00,0x00,0x00,0xf0,
0xdf,0x03,0x00,0x07,0x00,0x00,0x00,0x00,0x00,0x00,0xf8,0xff,0xff,0x1f,0x07,
0x00,0x00,0x00,0x00,0x00,0x00,0xff,0xff,0xff,0x3f,0x07,0x00,0x00,0x00,0x00,
0x00,0x00,0xff,0xff,0xff,0xff,0x07,0x00,0x00,0x00,0x00,0x00,0x00,0xff,0xff,
0xff,0xff,0x07,0x00,0x00,0x00,0x00,0x00,0x00,0xff,0xff,0xff,0xff,0x07,0x00,
0x00,0x00,0x00,0x00,0x00,0xff,0xff,0xff,0xff,0x07,0x00,0x00,0x00,0x00,0x00,
0x00,0xff,0xff,0xff,0xff,0x07,0x00,0x00,0x00,0x00,0x00,0x00,0xff,0xff,0xff,
0xff,0x07,0x00,0x00,0x00,0x00,0x00,0x00,0xff,0xff,0xff,0xff,0x07,0x00,0x00,
0x00,0x00,0x00,0x00,0xff,0xff,0xff,0xff,0x07,0x00,0x00,0x00,0x00,0x00,0x00,
0xff,0xff,0xff,0xff,0x07,0x00,0x00,0x00,0x00,0x00,0x00,0xff,0xff,0xff,0xff,
0x07,0x00,0x00,0x00,0x00,0x00,0x00,0xff,0xff,0xff,0xff,0x07,0x00,0x00,0x00,
0x00,0x00,0x00,0xff,0xff,0xff,0xff,0x07,0x00,0x00,0x00,0x00,0x00,0x00
};