#define image_width 86
#define image_height 64
static char image_bits[] = {
0xff,0xff,0x00,0x00,0x00,0x00,0x00,0x00,0x00,0x00,0x00,0xff,0xff,0x00,0x00,
0x00,0x00,0x00,0x00,0x00,0x00,0x00,0xff,0xff,0x00,0x00,0x00,0x00,0x00,0x00,
0x00,0x00,0x00,0xff,0xff,0x00,0x00,0x00,0x00,0x00,0x00,0x00,0x00,0x00,0xff,
0xff,0x00,0x00,0x00,0x00,0x00,0x00,0x00,0x00,0x00,0xff,0xff,0x00,0x00,0x00,
0x00,0x00,0x00,0x00,0x00,0x00,0xff,0xff,0x00,0x00,0x00,0x00,0x00,0x00,0x00,
0x00,0x00,0xff,0xff,0x00,0x00,0x00,0x00,0x00,0x00,0x00,0x00,0x00,0xff,0xff,
0x00,0x00,0x00,0x00,0x00,0x00,0x00,0x00,0x00,0xff,0xff,0x00,0x00,0x00,0x00,
0x00,0x00,0x00,0x00,0x00,0xff,0xff,0x00,0x00,0x00,0x00,0x00,0x00,0x00,0x00,
0x00,0xff,0xff,0x00,0x00,0x00,0x00,0x00,0x00,0x00,0x00,0x00,0xff,0xff,0x00,
0x00,0x00,0x00,0x00,0x00,0x00,0x00,0x00,0xff,0xff,0x00,0x00,0x00,0x00,0x00,
0x00,0x00,0x00,0x00,0xff,0xff,0x00,0x00,0x00,0x00,0x00,0x00,0x00,0x00,0x00,
0xff,0xff,0x00,0x00,0x00,0x00,0x00,0x00,0x00,0x00,0x00,0xff,0xff,0x00,0x00,
0x00,0x00,0x00,0x00,0x00,0x00,0x00,0xff,0xff,0x00,0x00,0x00,0x00,0x00,0x00,
0x00,0x00,0x00,0xff,0xff,0x00,0x00,0x00,0x00,0x00,0x00,0x00,0x00,0x00,0xff,
0xff,0x00,0x00,0x00,0x00,0x00,0x00,0x00,0x00,0x00,0xff,0xff,0x00,0x00,0x00,
0x00,0x00,0x00,0x00,0x00,0x00,0xff,0xff,0x00,0x00,0x00,0x00,0x00,0x00,0x00,
0x00,0x00,0xff,0xff,0x00,0x00,0x00,0x00,0x00,0x00,0x00,0x00,0x00,0xff,0xff,
0x00,0x00,0x00,0x00,0x00,0x00,0x00,0x00,0x00,0xff,0xff,0x00,0x00,0x00,0x00,
0x00,0x00,0x00,0x00,0x00,0xff,0xff,0x00,0x00,0x00,0x80,0x79,0x00,0x00,0x00,
0x00,0xff,0xff,0x00,0x00,0x00,0xc0,0xff,0x00,0x00,0x00,0x00,0xff,0xff,0x00,
0x00,0x00,0x80,0xff,0x01,0x00,0x00,0x00,0xff,0xff,0x00,0x00,0x00,0x00,0x7f,
0x02,0x00,0x00,0x00,0xff,0xff,0x00,0x00,0x00,0x00,0xfe,0x00,0x00,0x00,0x00,
0xff,0xff,0x00,0x00,0x00,0x00,0xfc,0x01,0x00,0x00,0x00,0xff,0xff,0x00,0x00,
0x00,0x00,0xf8,0x03,0x00,0x00,0x00,0xff,0xff,0x00,0x00,0x00,0x00,0xf8,0x03,
0x00,0x00,0x00,0xff,0xff,0x00,0x00,0x00,0x00,0xf8,0x07,0x00,0x00,0x00,0xff,
0xff,0x00,0x00,0x00,0x00,0xf8,0x07,0x00,0x00,0x00,0xff,0xff,0x00,0x00,0x00,
0x00,0xf8,0x07,0x00,0x00,0x00,0xff,0xff,0x00,0x00,0x00,0x00,0xf8,0x07,0x00,
0x00,0x00,0xff,0xff,0x00,0x00,0x00,0x00,0xec,0x0f,0x00,0x00,0x00,0xff,0xff,
0x00,0x00,0x1f,0x00,0xe4,0x7f,0x00,0x00,0x00,0xff,0xff,0x00,0x00,0xfe,0x0f,
0xff,0xff,0x00,0x00,0x00,0xff,0xff,0x00,0x00,0xf8,0xff,0xff,0xff,0xff,0x01,
0x00,0xff,0xff,0x00,0x00,0x00,0x81,0xff,0xff,0xff,0x03,0x00,0xff,0xff,0x00,
0x00,0x00,0x02,0xfe,0xff,0xff,0x07,0x00,0xff,0xff,0x00,0x00,0x00,0x04,0xfc,
0xff,0xff,0x0f,0x00,0xff,0xff,0x00,0x00,0x00,0x00,0x80,0xcf,0xff,0x0f,0x00,
0xff,0xff,0x00,0x00,0x00,0x00,0x80,0x07,0xfe,0x0f,0x00,0xff,0xff,0x00,0x00,
0x00,0x00,0x80,0x07,0xe0,0x01,0x00,0xff,0xff,0x00,0x00,0x00,0x00,0x00,0x00,
0x80,0x00,0x00,0xff,0xff,0x00,0x00,0x00,0x00,0x00,0x00,0x00,0x00,0x00,0xff,
0xff,0x00,0x00,0x00,0x00,0x00,0x00,0x00,0x00,0x00,0xff,0xff,0x00,0x00,0x00,
0x00,0x00,0x00,0x00,0x00,0x00,0xff,0xff,0x00,0x00,0x00,0x00,0x00,0x00,0x00,
0x00,0x00,0xff,0xff,0x00,0x00,0x00,0x00,0x00,0x00,0x00,0x00,0x00,0xff,0xff,
0x00,0x00,0x00,0x00,0x00,0x00,0x00,0x00,0x00,0xff,0xff,0x00,0x00,0x00,0x00,
0x00,0x00,0x00,0x00,0x00,0xff,0xff,0x00,0x00,0x00,0x00,0x00,0x00,0x00,0x00,
0x00,0xff,0xff,0x00,0x00,0x00,0x00,0x00,0x00,0x00,0x00,0x00,0xff,0xff,0x00,
0x00,0x00,0x00,0x00,0x00,0x00,0x00,0x00,0xff,0xff,0x00,0x00,0x00,0x00,0x00,
0x00,0x00,0x00,0x00,0xff,0xff,0x00,0x00,0x00,0x00,0x00,0x00,0x00,0x00,0x00,
0xff,0xff,0x00,0x00,0x00,0x00,0x00,0x00,0x00,0x00,0x00,0xff,0xff,0x00,0x00,
0x00,0x00,0x00,0x00,0x00,0x00,0x00,0xff,0xff,0x00,0x00,0x00,0x00,0x00,0x00,
0x00,0x00,0x00,0xff,0xff,0x00,0x00,0x00,0x00,0x00,0x00,0x00,0x00,0x00
};