#define image_width 86
#define image_height 64
static char image_bits[] = {
0x00,0x00,0x00,0x00,0x00,0x00,0x00,0x80,0xff,0xff,0x3f,0x00,0x00,0x00,0x00,
0x00,0x00,0x00,0x80,0xff,0xff,0x3f,0x00,0x00,0x00,0x00,0x00,0x00,0x00,0x00,
0xfe,0xff,0x3f,0x00,0x00,0x00,0x00,0x00,0x00,0x00,0x00,0xfe,0xff,0x3f,0x00,
0x00,0x00,0x00,0x00,0x00,0x00,0x00,0xfc,0xff,0x3f,0x00,0x00,0x00,0x00,0x00,
0x00,0x00,0x00,0xf8,0x9f,0x31,0x00,0x00,0x00,0x00,0x00,0x00,0x00,0x00,0x00,
0x00,0x00,0x00,0x00,0x00,0x00,0x00,0x00,0x00,0x00,0x00,0x00,0x00,0x00,0x00,
0x00,0x00,0x00,0x00,0x00,0x00,0x00,0x00,0x00,0x00,0x00,0x00,0x00,0x00,0x00,
0x00,0x00,0x00,0x00,0x00,0x00,0x00,0x00,0x00,0x00,0x00,0x00,0x00,0x00,0x00,
0x00,0x00,0x00,0x00,0x00,0x00,0x00,0x00,0x00,0x00,0x00,0x00,0x00,0x00,0x00,
0x00,0x00,0x00,0x00,0x00,0x00,0x00,0x00,0x00,0x00,0x00,0x00,0x00,0x00,0x00,
0x00,0x00,0x00,0x00,0x00,0x00,0x00,0x00,0x00,0x00,0x00,0x00,0x00,0x00,0x00,
0x00,0x00,0x00,0x00,0x00,0x00,0x00,0x00,0x00,0x00,0x00,0x00,0x00,0x00,0x00,
0x00,0x00,0x00,0x00,0x00,0x00,0x00,0x00,0x00,0x00,0x00,0x00,0x00,0x00,0x00,
0x00,0xe0,0x3f,0x00,0x00,0x00,0x00,0x00,0x00,0x00,0x00,0x00,0xf0,0x3f,0x00,
0x00,0x00,0x00,0x00,0x00,0x00,0x00,0x00,0xf8,0x3f,0x00,0x00,0x00,0x00,0x00,
0x00,0x00,0x00,0x00,0xf8,0x3f,0x00,0x00,0x00,0x00,0x00,0x08,0x00,0x00,0x00,
0xfc,0x3f,0x00,0x00,0x00,0x00,0x00,0x7f,0x00,0x00,0x00,0xff,0x3f,0x00,0x00,
0x00,0x00,0xe0,0xff,0x01,0x00,0xc0,0xff,0x3f,0x00,0x00,0x00,0x00,0xf8,0xff,
0x07,0x00,0xc0,0xff,0x3f,0x00,0x00,0x00,0x00,0xfe,0xff,0x3f,0x00,0xf0,0xff,
0x3f,0x00,0x00,0x00,0x00,0xff,0xff,0xff,0x00,0xfe,0xff,0x3f,0x00,0x00,0x00,
0x80,0xff,0xff,0xff,0x83,0xff,0xff,0x3f,0x00,0x00,0x00,0xc0,0x1f,0xe7,0xff,
0xef,0xff,0xff,0x3f,0x00,0x00,0x00,0xc0,0x1f,0x83,0xff,0xff,0xff,0xff,0x3f,
0x00,0x00,0x00,0xe0,0x9f,0x01,0xff,0xff,0xff,0xff,0x3f,0x00,0x00,0x00,0xe0,
0xf3,0x01,0xfe,0xff,0xff,0xff,0x3f,0x00,0x00,0x00,0xc0,0x63,0x00,0xfc,0xff,
0xff,0xff,0x3f,0x00,0x00,0x00,0xc0,0xf2,0x01,0xf8,0xff,0xff,0xff,0x3f,0x00,
0x00,0x00,0x80,0xf6,0x01,0xe0,0xff,0x3f,0xfe,0x3f,0x00,0x00,0x00,0x00,0xf4,
0x01,0xc0,0xff,0x07,0x1c,0x3f,0x00,0x00,0x00,0x00,0xf0,0x01,0x00,0x7f,0x00,
0x00,0x1e,0x00,0x00,0x00,0x00,0xf0,0x01,0x00,0x00,0x00,0x00,0x00,0x00,0x00,
0x00,0x00,0xf0,0x00,0x00,0x00,0x00,0x00,0x00,0x00,0x00,0x00,0x00,0xf0,0x00,
0x00,0x00,0x00,0x00,0x00,0x00,0x00,0x00,0x00,0xf0,0x00,0x00,0x00,0x00,0x00,
0x00,0x00,0x00,0x00,0x00,0xf0,0x01,0x00,0x00,0x00,0x00,0x00,0x00,0x00,0x00,
0x00,0xf0,0x01,0x00,0x00,0x00,0x00,0x00,0x00,0x00,0x00,0x00,0xf0,0x01,0x00,
0x00,0x00,0x00,0x00,0x00,0x00,0x00,0x00,0xe0,0x00,0x00,0x00,0x00,0x00,0x00,
0x00,0x00,0x00,0x00,0x00,0x00,0x00,0x00,0x00,0x00,0x00,0x00,0x00,0x00,0x00,
0x00,0x00,0x00,0x00,0x00,0x00,0x00,0x00,0x00,0x00,0x00,0x00,0x00,0x00,0x00,
0x00,0x00,0x00,0x00,0x00,0x00,0x00,0x00,0x00,0x00,0x00,0x00,0x00,0x00,0x00,
0x00,0x00,0x00,0x00,0x00,0x00,0x00,0x00,0x00,0x00,0x00,0x00,0x00,0x00,0x00,
0x00,0x00,0x00,0x00,0x00,0x00,0x00,0x00,0x00,0x00,0x00,0x00,0x00,0x00,0x00,
0x00,0x00,0x00,0x00,0x00,0x00,0x00,0x00,0x00,0x00,0x00,0x00,0x00,0x00,0x00,
0x00,0x00,0x00,0x00,0x00,0x00,0x00,0x00,0x00,0x00,0x00,0x00,0x00,0x00,0x00,
0x00,0x00,0x00,0x00,0x00,0x00,0x00,0x00,0x00,0x00,0x00,0x00,0x00,0x00,0x00,
0x00,0x00,0x00,0x00,0x00,0x00,0x00,0x00,0x00,0x00,0x00,0x00,0x00,0x00,0x00,
0x00,0x00,0x00,0x00,0x00,0x00,0x00,0x00,0x00,0x00,0x00,0x00,0x00,0x00,0x00,
0x00,0x00,0x00,0x00,0x00,0x00,0x00,0x00,0x00,0x00,0x00,0x00,0x00,0x00,0x00,
0x00,0x00,0x00,0x00,0x00,0x00,0x00,0x00,0x00,0x00,0x00,0x00,0x00,0x00,0x00,
0x00,0x00,0x00,0x00,0x00,0x00,0x00,0x00,0x00,0x00,0x00,0x00,0x00,0x00,0x00,
0x00,0x00,0x00,0x00,0x00,0x00,0x00,0x00,0x00,0x00,0x00,0x00,0x00,0x00
};