#define image_width 86
#define image_height 64
static char image_bits[] = {
0x00,0x00,0x00,0x00,0x00,0x00,0xff,0x3f,0x00,0x00,0x00,0x00,0x00,0x00,0x00,
0x00,0x80,0xff,0xff,0x00,0x00,0x00,0x00,0x00,0x00,0x00,0x00,0x80,0xff,0xff,
0x00,0x00,0x00,0x00,0x00,0x00,0x00,0x00,0x00,0xff,0xe3,0x01,0x00,0x00,0x00,
0x00,0x00,0x00,0x00,0x00,0xff,0xc3,0x03,0x00,0x00,0x00,0x00,0x00,0x00,0x00,
0x00,0xff,0x91,0x7f,0x00,0x00,0x00,0x00,0x00,0x00,0x00,0x00,0xfe,0x10,0xff,
0x00,0x00,0x00,0x00,0x00,0x00,0x00,0x00,0x78,0x10,0x0e,0x00,0x00,0x00,0x00,
0x00,0x00,0x00,0x00,0x00,0x18,0x00,0x00,0x00,0x00,0x00,0x00,0x00,0x00,0x18,
0x00,0x08,0x00,0x00,0x00,0x00,0x00,0x00,0x00,0x00,0x18,0x00,0x08,0x00,0x00,
0x00,0x00,0x00,0x00,0x00,0x00,0x3c,0x00,0x08,0x00,0x00,0x00,0x00,0x00,0x00,
0x00,0xf0,0x3f,0x00,0x0c,0x00,0x00,0x00,0x00,0x00,0x00,0x00,0xf8,0x1f,0x00,
0x0c,0x00,0x00,0x00,0x00,0x00,0x00,0x00,0xfc,0x1f,0x00,0x04,0x00,0x00,0x00,
0x00,0x00,0x00,0x00,0xfc,0x1f,0x00,0x06,0x00,0x00,0x00,0x00,0x00,0x00,0x00,
0xfe,0x07,0xf0,0x0f,0x00,0x00,0x00,0x00,0x00,0x00,0x00,0xfe,0x07,0x7c,0x1c,
0x00,0x00,0x00,0x00,0x00,0x00,0x00,0xfe,0xe7,0x1f,0x06,0x00,0x00,0x00,0x00,
0x00,0x00,0x00,0xfc,0xfb,0x03,0x0f,0x00,0x00,0x00,0x00,0x00,0x00,0x00,0xf0,
0xff,0x00,0x06,0x00,0x00,0x00,0x00,0x00,0x00,0x00,0xf8,0x7f,0x00,0x07,0x00,
0x00,0x10,0x00,0x00,0x00,0x00,0xfc,0x3f,0x00,0x0f,0x00,0x00,0x00,0x00,0x00,
0x00,0x00,0xfe,0x07,0x00,0x07,0x00,0x00,0x00,0x00,0x38,0x00,0x00,0xff,0x03,
0x00,0x07,0x00,0x00,0x00,0x00,0x7c,0x00,0x00,0xff,0x07,0x00,0x07,0x00,0x00,
0x00,0x00,0x7c,0x00,0x00,0xff,0x07,0x00,0x07,0x00,0x00,0x00,0x00,0x3c,0x00,
0x80,0xf7,0x07,0x00,0x07,0x00,0x00,0x00,0x00,0x3c,0x00,0x80,0xf3,0x07,0x80,
0x07,0x00,0x00,0x00,0x00,0x3c,0x00,0x81,0xf1,0x07,0x80,0x07,0x00,0x00,0x00,
0x00,0x3c,0x00,0x86,0xf9,0x07,0x80,0x0f,0x00,0x00,0x00,0x00,0x7e,0x00,0x98,
0xfb,0x07,0x80,0x07,0x00,0x00,0x00,0x00,0xfe,0x00,0xe0,0xf3,0x07,0x80,0x07,
0x00,0x00,0x00,0x00,0xfe,0x00,0x80,0xfb,0x07,0xc0,0x07,0x00,0x00,0x00,0x00,
0x3e,0x00,0x80,0xff,0x07,0xc0,0x03,0x00,0x00,0x00,0x00,0x3e,0x00,0x00,0xff,
0x07,0xc0,0x03,0x00,0x00,0x00,0x00,0x7e,0x00,0x00,0xff,0x07,0xc0,0x03,0x00,
0x00,0x00,0x00,0x7c,0x00,0x80,0xff,0x0f,0xc0,0x03,0x00,0x00,0x00,0x00,0x7c,
0x00,0xe0,0xff,0x0f,0xc0,0x03,0x00,0x00,0x00,0x00,0x7c,0x00,0x78,0xfe,0x7f,
0xc0,0x03,0x00,0x00,0x00,0x00,0xfe,0x00,0x1e,0xff,0xff,0xc1,0x03,0x00,0x00,
0x00,0x00,0xfe,0x88,0x07,0xff,0x3f,0xcf,0x03,0x00,0x00,0x00,0x00,0xfe,0xf9,
0x01,0xff,0x7f,0xf8,0x03,0x00,0x00,0x00,0x00,0x2c,0x3c,0x00,0xff,0x7f,0xe0,
0x01,0x00,0x00,0x00,0x00,0xee,0x07,0x80,0xff,0xff,0xe0,0x01,0x00,0x00,0x00,
0xf8,0x8f,0x00,0x80,0xff,0xff,0xe1,0x01,0x00,0x00,0x00,0x3e,0x00,0x00,0x80,
0xff,0xff,0xe1,0x01,0x00,0x00,0x00,0x00,0x00,0x00,0x80,0xff,0xff,0xe3,0x01,
0x00,0x00,0x00,0x00,0x00,0x00,0x80,0xff,0xff,0xc1,0x00,0x00,0x00,0x00,0x00,
0x00,0x00,0x80,0xff,0xff,0xc1,0x00,0x00,0x00,0x00,0x00,0x00,0x00,0x80,0xff,
0xff,0x00,0x00,0x00,0x00,0x00,0x00,0x00,0x00,0x00,0xff,0x3f,0x00,0x00,0x00,
0x00,0x00,0x00,0x00,0x00,0x00,0xfe,0x1e,0x00,0x00,0x00,0x00,0x00,0x00,0x00,
0x00,0x00,0x06,0x18,0x00,0x00,0x00,0x00,0x00,0x00,0x00,0x00,0x00,0x07,0x38,
0x00,0x00,0x00,0x00,0x00,0x00,0x00,0x00,0x00,0x07,0x38,0x00,0x00,0x00,0x00,
0x00,0x00,0x00,0x00,0x00,0x07,0x38,0x00,0x00,0x00,0x00,0x00,0x00,0x00,0x00,
0x00,0x07,0x70,0x00,0x00,0x00,0x00,0x00,0x00,0x00,0x00,0x00,0x07,0x70,0x00,
0x00,0x00,0x00,0x00,0x00,0x00,0x00,0x00,0x07,0x70,0x00,0x00,0x00,0x00,0x00,
0x00,0x00,0x00,0x00,0x07,0x70,0x00,0x00,0x00,0x00,0x00,0x00,0x00,0x00,0x00,
0x03,0x70,0x00,0x00,0x00,0x00,0x00,0x00,0x00,0x00,0x00,0x07,0x60,0x00,0x00,
0x00,0x00,0x00,0x00,0x00,0x00,0x00,0x07,0x60,0x00,0x00,0x00,0x00,0x00
};