#define image_width 86
#define image_height 64
static char image_bits[] = {
0xff,0xff,0xff,0x01,0x00,0x00,0x00,0x00,0x00,0xfe,0x3f,0xff,0xff,0xff,0x03,
0x00,0x00,0x00,0x00,0x00,0xff,0x3f,0xff,0xff,0xff,0x07,0x00,0x00,0x00,0x00,
0x00,0xff,0x3f,0xff,0xff,0xff,0x0f,0x00,0x00,0x00,0x00,0x80,0xff,0x3f,0xff,
0xff,0xff,0x3f,0x00,0x00,0x00,0x40,0x80,0xff,0x3f,0xff,0xff,0xff,0x1f,0x00,
0x00,0x00,0x60,0x80,0xff,0x3f,0xff,0xff,0xff,0x0f,0x00,0x00,0x00,0x60,0x80,
0xff,0x3f,0xff,0xff,0xff,0x07,0x00,0x00,0x00,0x70,0x80,0xff,0x3f,0xff,0xff,
0xff,0x3f,0x00,0x00,0x00,0x70,0x80,0xff,0x3f,0xff,0xff,0xff,0x1f,0x00,0x00,
0x00,0x38,0x80,0xff,0x3f,0xff,0xff,0xff,0x7f,0x80,0x00,0x00,0x38,0x80,0xff,
0x3f,0xff,0xff,0xff,0x7f,0x00,0x03,0x00,0x38,0x80,0xff,0x3f,0xff,0xff,0xff,
0xff,0x00,0x00,0x00,0x34,0x80,0xff,0x1f,0xfc,0xff,0xff,0xff,0x01,0x00,0x00,
0x3c,0x80,0xff,0x07,0xf0,0xff,0xff,0xff,0x05,0x00,0x00,0x3c,0x80,0xff,0x01,
0xc0,0xff,0xff,0xff,0x07,0x00,0x00,0x3d,0x00,0x7f,0x00,0x01,0xff,0xff,0xff,
0x1f,0x00,0xc0,0x3f,0x00,0x1f,0x20,0x03,0xfe,0xff,0xff,0x1f,0x00,0xc4,0x3f,
0x80,0x0f,0x23,0x61,0xf8,0xff,0xff,0x3f,0x80,0xe6,0x3f,0x80,0xc3,0x01,0xc1,
0xe0,0xff,0xff,0x3f,0x80,0xef,0x7f,0x00,0xe0,0x00,0xc0,0x03,0x00,0xf8,0x1f,
0x00,0xff,0x03,0x00,0xf0,0x00,0x80,0x03,0x00,0xf0,0x03,0x00,0xf8,0x03,0x00,
0x70,0x00,0x80,0xc3,0x0f,0xf0,0x00,0x00,0xe0,0x01,0xc0,0x70,0x00,0x80,0xc1,
0x1f,0x21,0x00,0x00,0xc0,0x31,0xe0,0x60,0x00,0x80,0x81,0x0f,0x03,0x00,0x00,
0x80,0x10,0x60,0x60,0x00,0x81,0x81,0x0f,0x06,0x00,0x00,0x00,0x18,0x70,0xc0,
0x20,0x81,0x81,0x07,0x06,0x00,0x00,0x00,0x0c,0x78,0xc0,0x20,0x83,0x00,0x07,
0x04,0x00,0x00,0x00,0x00,0x78,0xc0,0x30,0xc3,0x81,0x07,0x00,0x00,0x00,0x00,
0x00,0x78,0xe0,0x30,0xc3,0x81,0x07,0x00,0x00,0x00,0x00,0x00,0x78,0xe0,0x30,
0xc7,0x81,0x07,0x00,0x00,0x00,0x00,0x00,0x78,0xf0,0x38,0xc7,0x83,0x0f,0x00,
0x00,0x00,0x00,0x00,0x7c,0xf0,0x38,0xcf,0x83,0x0f,0x00,0x00,0x00,0x00,0x00,
0xfc,0xff,0x3d,0xcf,0x83,0x0f,0x00,0x00,0xe0,0xff,0xff,0xff,0xff,0x3f,0xcf,
0xc7,0x0f,0xf0,0xff,0xff,0xff,0xff,0xff,0xff,0x3f,0xff,0xc7,0xff,0xff,0xff,
0xff,0xff,0xff,0xff,0xff,0x3f,0xff,0xff,0xff,0xff,0xff,0xff,0xff,0xff,0xff,
0xff,0x3f,0xff,0xff,0xff,0xff,0xff,0xff,0xff,0xff,0xff,0xff,0x3f,0xff,0xff,
0xff,0xff,0xff,0xff,0xff,0xff,0xff,0xff,0x3f,0xff,0xff,0xff,0xff,0xff,0xff,
0xff,0x20,0xff,0xff,0x3f,0xff,0xff,0xff,0xff,0x03,0x00,0x00,0x00,0xff,0xff,
0x3f,0xff,0xff,0x3f,0x00,0x00,0x00,0x00,0x80,0xff,0xff,0x3f,0xff,0xff,0x3f,
0x00,0x00,0x00,0x00,0x80,0xff,0xff,0x3f,0xff,0xff,0x3f,0x00,0x00,0x00,0x00,
0x80,0xff,0xff,0x3f,0xff,0xff,0x3f,0x00,0x00,0x00,0x00,0x80,0xff,0xff,0x3f,
0xff,0xff,0x3f,0x00,0x00,0x00,0x00,0x80,0xff,0xff,0x3f,0xff,0xff,0x1f,0x00,
0x00,0x00,0x00,0x00,0xff,0xff,0x3f,0xff,0xff,0x1f,0x00,0x00,0x00,0x00,0x00,
0xff,0xff,0x3f,0xff,0xff,0x1f,0x20,0x00,0x00,0x00,0x00,0xff,0xff,0x3f,0xff,
0xff,0x1f,0x30,0x00,0x00,0x00,0x00,0xff,0xff,0x3f,0xff,0xff,0x0f,0x30,0x00,
0x00,0x00,0x00,0xfe,0xff,0x3f,0xff,0xff,0x0f,0x30,0x00,0x00,0x00,0x01,0xfe,
0xff,0x3f,0xff,0xff,0x0f,0x38,0x00,0x00,0x00,0x01,0xfe,0xff,0x3f,0xff,0xff,
0x03,0x38,0x00,0x00,0x00,0x03,0xf8,0xff,0x3f,0xff,0xff,0x00,0x38,0x00,0x00,
0x00,0x03,0xe0,0xff,0x3f,0xff,0x3f,0x00,0x3c,0x00,0x00,0x00,0x07,0x80,0xff,
0x3f,0xff,0x1f,0x00,0x3c,0x00,0x00,0x00,0x07,0x00,0xfe,0x3f,0xff,0x07,0x00,
0x3e,0x00,0x00,0x00,0x0f,0x00,0xfc,0x3f,0xff,0x03,0x00,0x1e,0x00,0x00,0x00,
0x0f,0x00,0xf0,0x3f,0xfe,0x00,0x80,0x1f,0x00,0x00,0x00,0x1e,0x00,0xc0,0x0f,
0x3c,0x00,0xc0,0x1f,0x00,0x00,0x00,0x7e,0x00,0x00,0x0f,0x18,0x00,0xf0,0x1f,
0x00,0x00,0x00,0xff,0x00,0x00,0x06,0x00,0x00,0xf8,0x1f,0x00,0x00,0x00,0xff,
0x03,0x00,0x00,0x00,0x00,0xfe,0x1f,0x00,0x00,0x00,0xfe,0x07,0x00,0x00
};