#define image_width 86
#define image_height 64
static char image_bits[] = {
0x00,0x00,0x00,0x00,0x00,0x00,0x00,0x00,0x00,0x00,0x00,0x00,0x00,0x00,0x00,
0x00,0x00,0x00,0x00,0x00,0x00,0x00,0x00,0x00,0x00,0x00,0xf0,0x7f,0x00,0x00,
0x00,0x00,0x00,0x00,0x00,0x00,0x00,0xfe,0xff,0x03,0x00,0x00,0x00,0x00,0x00,
0x00,0x00,0x80,0xff,0xff,0x07,0x00,0x00,0x00,0x00,0x00,0x00,0x00,0xe0,0xff,
0xff,0x07,0x00,0x00,0x00,0x00,0x00,0x00,0x00,0xf8,0xff,0xff,0x03,0x00,0x00,
0x00,0x00,0x00,0x00,0x00,0xfc,0xff,0xff,0x07,0x00,0x00,0x00,0x00,0x40,0x00,
0x00,0xfe,0xff,0xff,0x00,0x00,0x00,0x80,0x01,0x00,0x00,0x00,0xff,0xff,0xff,
0x00,0x00,0x00,0x00,0x00,0x00,0x00,0x80,0xff,0xff,0x7f,0x00,0x00,0x00,0x00,
0x00,0x00,0x00,0xc0,0xff,0xff,0x3f,0x00,0x00,0x00,0x00,0x00,0x00,0x00,0xe0,
0xff,0xff,0x0f,0x00,0x00,0x00,0x00,0x00,0x00,0x00,0xe0,0xff,0xff,0x0f,0x00,
0x00,0x00,0x00,0x02,0x00,0x00,0xf0,0xff,0xff,0x07,0x00,0x00,0x00,0x00,0x00,
0x00,0x00,0xf0,0xff,0xff,0x03,0x00,0x00,0x00,0x00,0x00,0x00,0x00,0xf8,0xff,
0xff,0x07,0x00,0x00,0x00,0x00,0x00,0x00,0x00,0xf8,0xff,0xff,0x27,0x00,0x00,
0x00,0x00,0x00,0x00,0x00,0xfc,0xff,0xff,0x07,0x00,0x00,0x00,0x00,0x00,0x00,
0x00,0xfc,0xff,0xff,0x03,0x00,0x00,0x00,0x00,0x00,0x00,0x00,0xfc,0xff,0xff,
0x01,0x00,0x00,0x00,0x00,0x00,0x00,0x00,0xfc,0xff,0xff,0x00,0x00,0x00,0x00,
0x00,0x00,0x00,0x00,0xfe,0xff,0xff,0x00,0x00,0x00,0x00,0x00,0x00,0x00,0x00,
0xfe,0x8f,0x3f,0x00,0x00,0x00,0x00,0x00,0x00,0x00,0x00,0xfe,0x0f,0x7f,0x00,
0x00,0x00,0x00,0x00,0x00,0x00,0x00,0xfe,0x06,0xfc,0x01,0x00,0x00,0x00,0x00,
0x00,0x00,0x00,0x7c,0x00,0xfe,0x03,0x00,0x00,0x00,0x00,0x00,0x00,0x00,0x2c,
0x20,0xfe,0x07,0x00,0x00,0x00,0x00,0x00,0x00,0x00,0x00,0x00,0xfc,0x87,0x00,
0x00,0x00,0x00,0x00,0x00,0x00,0x00,0x00,0xfc,0x0f,0x00,0x00,0x00,0x40,0x00,
0x00,0x00,0x00,0x00,0xfc,0x1f,0x00,0x00,0x00,0x00,0x00,0x00,0x00,0x00,0x00,
0xfe,0x3f,0x00,0x00,0x00,0x00,0x00,0x00,0x00,0x00,0x00,0xfe,0x67,0x00,0x00,
0x00,0x00,0x00,0x00,0x00,0x00,0x00,0xfe,0xc7,0x08,0x00,0x00,0x00,0x00,0x00,
0x00,0x00,0x00,0xfe,0xe7,0x18,0x00,0x00,0x00,0x00,0x00,0x00,0x00,0x00,0xff,
0xff,0x11,0x00,0x00,0x00,0x00,0x00,0x00,0x00,0x00,0xff,0xff,0x1b,0x00,0x00,
0x00,0x00,0x00,0x00,0x00,0x00,0xfe,0x7f,0x0e,0x00,0x00,0x00,0x00,0x00,0x00,
0x00,0x00,0xfc,0x3f,0x00,0x00,0x00,0x00,0x00,0x00,0x00,0x00,0x00,0xf8,0x07,
0x00,0x00,0x00,0x00,0x00,0x00,0x00,0x00,0x00,0xf8,0x07,0x00,0x00,0x00,0x00,
0x00,0x00,0x00,0x00,0x00,0xfc,0x07,0x00,0x00,0x00,0x00,0x00,0x00,0x00,0x00,
0x00,0xfe,0x0f,0x00,0x00,0x00,0x00,0x00,0x00,0x00,0x00,0x00,0xff,0x0f,0x00,
0x00,0x00,0x00,0x00,0x00,0x00,0x00,0x80,0xff,0x0f,0x00,0x00,0x00,0x00,0x00,
0x00,0x00,0x00,0xe0,0xff,0x0f,0x00,0x00,0x00,0x00,0x00,0x00,0x00,0x00,0xf0,
0xff,0x0f,0x00,0x00,0x00,0x00,0x00,0x00,0x00,0x00,0xfc,0xff,0x0f,0x00,0x00,
0x80,0x01,0x00,0x00,0x00,0x80,0xff,0xff,0x0f,0x00,0x00,0x00,0x01,0x00,0x00,
0x00,0xf0,0xff,0xff,0x0f,0x00,0x00,0x00,0x00,0x00,0x00,0x00,0xfe,0xff,0xff,
0x0f,0x00,0x00,0x00,0x00,0x00,0x00,0x80,0xff,0xff,0xff,0x0f,0x00,0x00,0x00,
0x00,0x00,0x00,0xc4,0xff,0xff,0xff,0x0f,0x00,0x00,0x00,0x00,0x01,0x00,0xc0,
0xff,0xff,0xff,0x0f,0x00,0x00,0x00,0x00,0x00,0x00,0xe0,0xff,0xff,0xff,0x1f,
0x00,0x00,0x00,0x00,0x00,0x00,0xf0,0xff,0xff,0xff,0x0f,0x00,0x00,0x00,0x00,
0x00,0x00,0xe0,0xff,0xff,0xff,0x0f,0x00,0x00,0x00,0x00,0x00,0x00,0xc0,0xff,
0xff,0xff,0x0f,0x00,0x00,0x00,0x00,0x00,0x00,0x00,0xfe,0xff,0xff,0x1f,0x00,
0x00,0x00,0x00,0x00,0x00,0x01,0xfc,0xff,0xff,0x1f,0x08,0x00,0x00,0x00,0x00,
0x00,0x00,0xe0,0xff,0xff,0x1f,0x1c,0x00,0x00,0x00,0x00,0x00,0x00,0xc0,0xff,
0xff,0x1f,0x00,0x00,0x00,0x00,0x00,0x00,0x00,0xc0,0xff,0xff,0x1f,0x00,0x00,
0x00,0x00,0x00,0x00,0x00,0xc0,0xff,0xff,0x1f,0x00,0x00,0x00,0x00,0x00
};