#define image_width 86
#define image_height 64
static char image_bits[] = {
0x00,0x00,0x00,0x00,0x00,0x00,0x00,0xff,0x07,0x00,0x00,0x00,0x00,0x00,0x00,
0x00,0x00,0x00,0xff,0x07,0x00,0x00,0x00,0x00,0x00,0x00,0x00,0x00,0x00,0xff,
0x07,0x00,0x00,0x00,0x00,0x00,0x00,0x00,0x00,0x00,0xfe,0x0f,0x00,0x00,0x00,
0x00,0x00,0x00,0x00,0x00,0x00,0xfc,0x7f,0x00,0x00,0x00,0x00,0x00,0x00,0x00,
0x00,0x00,0xf8,0xff,0x00,0x00,0x00,0x00,0x00,0x00,0x00,0x01,0x00,0x80,0xff,
0x00,0x00,0x00,0x00,0x00,0x00,0x00,0x01,0x00,0x00,0x3f,0x00,0x00,0x00,0x00,
0x00,0x00,0x00,0x00,0x00,0x00,0x00,0x00,0x00,0x00,0x00,0x00,0x00,0x00,0x00,
0x00,0x00,0x00,0x00,0x00,0x00,0x00,0x00,0x00,0x00,0x00,0x00,0x00,0x00,0x00,
0x00,0x00,0x00,0x00,0x00,0x00,0x3c,0x00,0x00,0x00,0x00,0x00,0x00,0x00,0x00,
0x00,0x00,0x3e,0x00,0x00,0x00,0x00,0x00,0x00,0x00,0x00,0x00,0xf0,0x3f,0x00,
0x00,0x01,0x00,0x00,0x00,0x00,0x00,0x00,0xf8,0x3f,0x00,0x00,0x00,0x00,0x00,
0x00,0x00,0x00,0x00,0xfc,0x3f,0x00,0x00,0x00,0x00,0x00,0x00,0x00,0x00,0x00,
0xfc,0x1f,0x00,0x00,0x00,0x00,0x00,0x00,0x00,0x00,0x20,0xfe,0x1f,0x00,0x00,
0x00,0x00,0x00,0x00,0x00,0x00,0x00,0xfe,0x07,0x00,0x00,0x00,0x00,0x00,0x00,
0x00,0x00,0x00,0xfc,0x07,0x00,0x00,0x00,0x00,0x00,0x00,0x00,0x00,0x00,0xfc,
0x47,0x00,0x00,0x00,0x00,0x00,0x00,0x00,0x00,0x00,0xe0,0xe1,0x00,0x00,0x00,
0x00,0x00,0x00,0x00,0x00,0x00,0xf0,0x33,0x00,0x00,0x00,0x00,0x00,0x00,0x30,
0x00,0x00,0xf8,0x1f,0x01,0x00,0x00,0x00,0x00,0x00,0x78,0x00,0x00,0xfc,0x3f,
0x02,0x00,0x00,0x00,0x00,0x00,0x78,0x00,0x00,0xfe,0x7f,0x02,0x00,0x00,0x00,
0x00,0x00,0x78,0x00,0x00,0xff,0xff,0x04,0x00,0x00,0x00,0x00,0x00,0x78,0x00,
0x00,0xff,0xff,0x07,0x00,0x00,0x00,0x00,0x00,0x78,0x00,0x00,0xff,0x87,0x0f,
0x00,0x00,0x00,0x00,0x00,0x7c,0x00,0x80,0xf3,0x07,0x1e,0x00,0x00,0x00,0x00,
0x00,0x7c,0x00,0x00,0xf3,0x1f,0x38,0x00,0x00,0x00,0x00,0x00,0xfe,0x00,0x00,
0xf7,0x0f,0x70,0x00,0x00,0x00,0x00,0x00,0xfe,0x01,0x02,0xfe,0x07,0x70,0x00,
0x00,0x00,0x00,0x00,0xfe,0x01,0x1c,0xfc,0x07,0x47,0x00,0x00,0x00,0x00,0x00,
0x7c,0x00,0x70,0xfd,0xf7,0x47,0x00,0x00,0x00,0x00,0x00,0x7c,0x00,0x80,0xff,
0xff,0x81,0x00,0x00,0x00,0x00,0x00,0x7c,0x00,0x00,0xff,0x0f,0x00,0x00,0x00,
0x00,0x00,0x00,0x7c,0x00,0x82,0xff,0x0f,0x00,0x01,0x00,0x00,0x00,0x00,0xfc,
0x00,0xfe,0xff,0x0f,0x00,0x02,0x00,0x00,0x00,0x00,0xfc,0xf0,0x3f,0xfc,0x1f,
0x00,0x02,0x00,0x00,0x00,0x00,0xfc,0x00,0x00,0xfc,0xff,0x00,0x04,0x00,0x00,
0x00,0x00,0xfe,0x00,0x00,0xfc,0xbf,0x0f,0x08,0x00,0x00,0x00,0x00,0xfe,0x00,
0x00,0xfc,0x3f,0x7c,0x08,0x00,0x00,0x00,0x00,0x68,0x00,0x00,0xfe,0x7f,0x00,
0x10,0x00,0x00,0x00,0x00,0x7e,0x00,0x00,0xfe,0x7f,0x00,0x30,0x00,0x00,0x00,
0xf8,0x07,0x00,0x00,0xfe,0xff,0x00,0x20,0x00,0x00,0x00,0x1c,0x00,0x00,0x00,
0xff,0xff,0x00,0x60,0x00,0x00,0x00,0x00,0x00,0x00,0x00,0xff,0xff,0x00,0x40,
0x00,0x00,0x00,0x00,0x00,0x00,0x00,0xff,0xff,0x00,0xc0,0x00,0x00,0x00,0x00,
0x00,0x00,0x80,0xff,0xff,0x00,0x80,0x01,0x00,0x00,0x00,0x00,0x00,0x80,0xff,
0x7f,0x00,0x00,0x01,0x00,0x00,0x00,0x00,0x00,0x80,0xff,0x7f,0x00,0x00,0x03,
0x00,0x00,0x00,0x00,0x00,0x00,0xff,0x3f,0x00,0x00,0x06,0x00,0x00,0x00,0x00,
0x00,0x00,0xfe,0x3f,0x00,0x00,0x06,0x00,0x00,0x00,0x00,0x00,0x00,0x0e,0x38,
0x00,0x00,0x0c,0x00,0x00,0x00,0x00,0x00,0x00,0x0e,0x38,0x00,0x00,0x1c,0x00,
0x00,0x00,0x00,0x00,0x00,0x07,0x70,0x00,0x00,0x18,0x00,0x00,0x00,0x00,0x00,
0x00,0x07,0x70,0x00,0x00,0x30,0x00,0x00,0x00,0x00,0x00,0x00,0x07,0x70,0x00,
0x00,0x30,0x00,0x00,0x00,0x00,0x00,0x00,0x07,0x70,0x00,0x00,0x60,0x00,0x00,
0x00,0x00,0x00,0x00,0x07,0x70,0x00,0x00,0x60,0x00,0x00,0x00,0x00,0x00,0x00,
0x07,0x60,0x00,0x00,0xc0,0x01,0x00,0x00,0x00,0x00,0x00,0x07,0x60,0x00,0x00,
0x00,0x00,0x00,0x00,0x00,0x00,0x00,0x07,0x60,0x00,0x00,0x00,0x00,0x00
};