#define image_width 86
#define image_height 64
static char image_bits[] = {
0xff,0xff,0xff,0xff,0x07,0xf0,0xff,0xff,0xff,0xff,0x3f,0xff,0xff,0xff,0xff,
0x07,0xf0,0xff,0xff,0xff,0xff,0x3f,0xff,0xff,0xff,0xff,0x07,0xf0,0xff,0xff,
0xff,0xff,0x3f,0xff,0xff,0xff,0xff,0x07,0xc0,0xff,0xff,0xff,0xff,0x3f,0xff,
0xff,0xff,0xff,0x07,0xc0,0xff,0xff,0xff,0xff,0x3f,0xff,0xff,0xff,0xff,0x07,
0xc0,0xff,0xff,0xff,0xff,0x3f,0xff,0xff,0xff,0x7f,0x06,0xc0,0xfd,0xff,0xff,
0xff,0x3f,0xff,0xff,0xff,0x4f,0x06,0xc0,0xfd,0xff,0xff,0xff,0x3f,0xff,0xff,
0x3f,0x4f,0x06,0x00,0xfc,0xff,0xff,0xff,0x3f,0xff,0xff,0x7f,0x1f,0x06,0x00,
0xfc,0xff,0xff,0xff,0x3f,0xff,0xff,0x7f,0x1e,0x04,0x00,0xec,0xff,0xff,0xff,
0x3f,0xff,0xff,0x7f,0x1a,0x04,0x00,0xe4,0xfd,0xff,0xff,0x3f,0xff,0xff,0xff,
0x1c,0x00,0x00,0xa4,0xfe,0xff,0xff,0x3f,0xff,0xff,0xff,0x10,0x00,0x00,0x00,
0xfe,0xff,0xff,0x3f,0xff,0xff,0xbf,0x10,0x00,0x00,0x00,0xfe,0xff,0xff,0x3f,
0xff,0xff,0x3f,0x30,0x00,0x00,0x00,0xff,0xff,0xff,0x3f,0xff,0xff,0x03,0x00,
0x00,0x00,0x00,0xf3,0xff,0xff,0x3f,0xff,0xff,0x00,0x00,0x00,0x00,0x00,0xc0,
0xff,0xff,0x3f,0xff,0x3f,0x00,0x00,0x00,0x00,0x00,0x00,0xff,0xff,0x3f,0xff,
0x03,0x00,0x00,0x00,0x00,0x00,0x00,0xe0,0xff,0x3f,0x7f,0x00,0x00,0x00,0x00,
0x00,0x00,0x00,0x80,0xff,0x3f,0x03,0x00,0x00,0x00,0x00,0x00,0x00,0x00,0x00,
0xf0,0x3f,0x00,0x00,0x00,0x00,0x00,0x00,0x00,0x00,0x00,0x00,0x00,0x00,0x00,
0x00,0x00,0x00,0x00,0x00,0x00,0x00,0x00,0x00,0x00,0x00,0x00,0x00,0x00,0x00,
0x00,0x00,0x00,0x00,0x00,0x00,0x00,0x00,0x00,0x00,0x00,0x00,0x00,0x00,0x00,
0x00,0x00,0x00,0x00,0x00,0x00,0x00,0x00,0x00,0x00,0x00,0x00,0x00,0x00,0x00,
0x00,0x00,0x00,0x00,0x00,0x00,0x00,0x00,0x00,0x00,0x00,0x00,0x00,0x00,0x00,
0x00,0x00,0x00,0x00,0x00,0x00,0x00,0x00,0x00,0x00,0x00,0x00,0x00,0x00,0x00,
0x00,0x00,0x00,0x00,0x00,0x00,0x00,0x00,0x00,0x00,0x00,0x00,0x00,0x00,0x00,
0x00,0x00,0x00,0x00,0x00,0x00,0x00,0x00,0x00,0x00,0x00,0x00,0x00,0x00,0x00,
0x00,0x00,0x00,0x00,0x00,0x00,0x00,0x00,0x00,0x00,0x00,0x00,0x00,0x00,0x00,
0x00,0x00,0x00,0x00,0x00,0x00,0x00,0x00,0x00,0x00,0x00,0x00,0x00,0x00,0x00,
0x00,0x00,0x00,0x00,0x00,0x00,0x00,0x00,0x00,0x00,0x00,0x00,0x00,0x00,0x00,
0x00,0x00,0x00,0x00,0x00,0x00,0x00,0x00,0x00,0x00,0x00,0x00,0x00,0x00,0x00,
0x00,0x00,0x00,0x00,0x00,0x00,0x00,0x00,0x00,0x00,0x00,0x00,0x00,0x00,0x00,
0x00,0x00,0x00,0x00,0x00,0x00,0x00,0x00,0x00,0x00,0x00,0x00,0x00,0x00,0x00,
0x00,0x00,0x00,0x00,0x00,0x00,0x00,0x00,0x00,0x00,0x00,0x00,0x00,0x00,0x00,
0x00,0x00,0x00,0x00,0x00,0x00,0x00,0x00,0x00,0x00,0x00,0x00,0x00,0x00,0x00,
0x00,0x00,0x00,0x00,0x00,0x00,0x00,0x00,0x00,0x09,0x00,0x00,0x00,0x00,0x00,
0x00,0x00,0x00,0x00,0x00,0x00,0x00,0x00,0x00,0x00,0x00,0x00,0x00,0x00,0x00,
0x00,0x00,0x00,0x00,0x00,0x00,0x00,0x00,0x00,0x00,0x00,0x00,0x00,0x00,0x00,
0x00,0x00,0x00,0x00,0x00,0x00,0x00,0x00,0x00,0x00,0x00,0x00,0x00,0x00,0x00,
0x00,0x00,0x00,0x00,0x00,0x00,0x00,0x00,0x00,0x00,0x00,0x00,0x00,0x00,0x00,
0x00,0x00,0x00,0x00,0x00,0x00,0x00,0x00,0x00,0x00,0x00,0x00,0x00,0x00,0x00,
0x00,0x00,0x00,0x00,0x00,0x00,0x00,0x00,0x00,0x00,0x00,0x00,0x00,0x00,0x00,
0x00,0x00,0x00,0x00,0x00,0x00,0x00,0x00,0x00,0x00,0x00,0x00,0x00,0x00,0x00,
0x00,0x00,0x00,0x00,0x00,0x00,0x00,0x00,0x00,0xc0,0x01,0x00,0x00,0x00,0x00,
0x00,0x00,0x00,0x00,0x00,0xe0,0x01,0x00,0x00,0x00,0x00,0x00,0x00,0x00,0x00,
0x00,0xe0,0x01,0x00,0x00,0x00,0x00,0x00,0x00,0x00,0x00,0x00,0xf0,0x00,0x00,
0x00,0x00,0x00,0x00,0x00,0x00,0x00,0x00,0xf0,0x00,0x00,0x00,0x00,0x00,0x00,
0x00,0x00,0x00,0x00,0xf0,0x00,0x00,0x00,0x00,0x00,0x00,0x00,0x00,0x00,0x00,
0xe0,0x00,0x00,0x00,0x00,0x00,0x00,0x00,0x00,0x00,0x00,0xe0,0x01,0x00,0x00,
0x00,0x00,0x00,0x00,0x00,0x00,0x00,0xc0,0x01,0x00,0x00,0x00,0x00,0x00
};