#define image_width 86
#define image_height 64
static char image_bits[] = {
0x00,0x00,0x00,0x00,0x00,0x00,0x00,0x00,0x38,0x00,0x00,0x00,0x00,0x00,0x00,
0x00,0x00,0x00,0x00,0x7e,0x00,0x00,0x00,0x00,0x00,0x00,0x00,0x00,0x02,0xc0,
0xff,0x00,0x00,0x00,0x00,0x00,0x00,0x00,0x00,0x06,0xfe,0xff,0x01,0x00,0x00,
0x00,0x00,0x00,0x00,0x00,0xfc,0xff,0xff,0x01,0x00,0x00,0x00,0x00,0x00,0x00,
0x00,0xf0,0xff,0xff,0x01,0x00,0x00,0x00,0x00,0x00,0x00,0x00,0x00,0x80,0xff,
0x01,0x00,0x00,0x00,0x00,0x00,0x00,0x00,0x00,0x80,0xff,0x01,0x00,0x00,0x00,
0x00,0x00,0x00,0x00,0x00,0x00,0xff,0x01,0x00,0x00,0x00,0x00,0x00,0x00,0x00,
0x00,0x00,0xfe,0x00,0x00,0x00,0x00,0x00,0x00,0x00,0x00,0x00,0x00,0x3c,0x00,
0x00,0x00,0x00,0x00,0x00,0x00,0x00,0x00,0x00,0x00,0x00,0x00,0x00,0x00,0x00,
0x00,0x00,0x00,0x00,0x00,0x00,0x00,0x00,0x00,0x00,0x00,0x00,0x00,0xe0,0x00,
0x00,0x00,0x00,0x00,0x00,0x00,0x00,0x00,0x80,0xff,0x01,0x00,0x00,0x00,0x00,
0x00,0x00,0x00,0x00,0xc0,0xff,0x01,0x00,0x00,0x00,0x00,0x00,0x00,0x00,0x00,
0xe0,0xff,0x03,0x00,0x00,0x00,0x00,0x00,0x00,0x00,0x00,0xe0,0xff,0x01,0x00,
0x00,0x00,0x00,0x00,0x00,0x00,0x00,0xf0,0xff,0x00,0x00,0x00,0x00,0x00,0x00,
0x00,0x00,0x00,0xe0,0xff,0x00,0x00,0x00,0x00,0x00,0x00,0x00,0x00,0x00,0xc0,
0x7f,0x00,0x00,0x00,0x00,0x00,0x00,0x00,0x00,0x00,0xc0,0x7f,0x00,0x00,0x00,
0x00,0x00,0x00,0x00,0x00,0x00,0x80,0x3f,0x00,0x00,0x00,0x00,0x00,0x00,0x30,
0x00,0x00,0x80,0x0f,0x00,0x00,0x00,0x00,0x00,0x00,0x78,0x00,0x00,0xc0,0x7f,
0x80,0x00,0x00,0x00,0x00,0x00,0x78,0x00,0x00,0xe0,0xff,0x80,0x00,0x00,0x00,
0x00,0x00,0x78,0x00,0x00,0xf0,0xff,0x01,0x00,0x00,0x00,0x00,0x00,0x78,0x00,
0x00,0xf8,0xff,0x03,0x00,0x00,0x00,0x00,0x00,0x78,0x00,0x00,0xf8,0xff,0x03,
0x0c,0x00,0x00,0x00,0x00,0xf8,0x00,0x00,0xf8,0xdf,0x07,0x00,0x00,0x00,0x00,
0x00,0xfc,0x00,0x00,0xfc,0x1f,0x0f,0x00,0x00,0x00,0x00,0x00,0xfe,0x01,0x00,
0xcc,0x1f,0x1e,0x00,0x00,0x00,0x00,0x00,0xfe,0x01,0x0c,0xce,0x1f,0x1c,0x00,
0x00,0x00,0x00,0x00,0xfc,0x01,0x30,0xe6,0x1f,0x70,0x00,0x00,0x00,0x00,0x00,
0xfc,0x00,0xe0,0xc7,0x1f,0xe0,0x00,0x00,0x00,0x00,0x00,0xfc,0x00,0x80,0xc7,
0x0f,0xc0,0x01,0x00,0x00,0x00,0x00,0xf8,0x00,0x80,0xef,0xdf,0x9f,0x03,0x00,
0x00,0x00,0x00,0xf8,0x00,0x82,0xff,0xff,0x1f,0x07,0x00,0x00,0x00,0x00,0xf8,
0x00,0xfe,0xff,0x3f,0x00,0x0c,0x00,0x00,0x00,0x00,0xf8,0xc0,0xff,0xff,0x3f,
0x00,0x10,0x00,0x00,0x00,0x00,0xfc,0x00,0x70,0xf8,0x3f,0x00,0x60,0x00,0x00,
0x00,0x00,0xfc,0x00,0x30,0xf8,0xff,0x00,0xc0,0x00,0x00,0x00,0x00,0xfc,0x00,
0x20,0xf8,0xff,0x01,0x80,0x01,0x00,0x00,0x00,0x68,0x00,0x00,0xfc,0xff,0x07,
0x00,0x02,0x00,0x00,0x00,0xff,0x00,0x00,0xfc,0xff,0x3f,0x00,0x0c,0x00,0x00,
0xfc,0x03,0x00,0x00,0xfe,0xff,0xff,0x00,0x18,0x00,0x00,0x00,0x00,0x00,0x00,
0xfe,0xff,0x1f,0x00,0x30,0x00,0x00,0x00,0x00,0x00,0x00,0xff,0xff,0x3f,0x00,
0x60,0x00,0x00,0x00,0x00,0x00,0x00,0xff,0xff,0x3f,0x00,0x80,0x01,0x00,0x00,
0x00,0x00,0x80,0xff,0xff,0x3f,0x00,0x00,0x03,0x00,0x00,0x00,0x00,0x80,0xff,
0xff,0x1f,0x00,0x00,0x06,0x00,0x00,0x00,0x00,0x80,0xff,0xff,0x0f,0x00,0x00,
0x0c,0x00,0x00,0x00,0x00,0x80,0xff,0xff,0x07,0x00,0x00,0x10,0x00,0x00,0x00,
0x00,0x00,0xff,0xff,0x03,0x00,0x00,0x60,0x00,0x00,0x00,0x00,0x00,0xfe,0x7f,
0x00,0x00,0x00,0xc0,0x00,0x00,0x00,0x00,0x00,0xce,0x3f,0x00,0x00,0x00,0x80,
0x01,0x00,0x00,0x00,0x00,0x0e,0x70,0x00,0x00,0x00,0x00,0x03,0x00,0x00,0x00,
0x00,0x06,0x70,0x00,0x00,0x00,0x00,0x0e,0x00,0x00,0x00,0x00,0x06,0x70,0x00,
0x00,0x00,0x00,0x18,0x00,0x00,0x00,0x00,0x06,0x70,0x00,0x00,0x00,0x00,0x10,
0x00,0x00,0x00,0x00,0x07,0x70,0x00,0x00,0x00,0x00,0x00,0x00,0x00,0x00,0x00,
0x07,0x60,0x00,0x00,0x00,0x00,0x00,0x00,0x00,0x00,0x00,0x07,0x60,0x00,0x00,
0x00,0x00,0x00,0x00,0x00,0x00,0x00,0x07,0x60,0x00,0x00,0x00,0x00,0x00
};