#define image_width 86
#define image_height 64
static char image_bits[] = {
0xff,0x83,0x3f,0x00,0x00,0x00,0x00,0xc0,0x3f,0x00,0x00,0x1f,0x00,0x1f,0x00,
0x00,0x00,0x00,0x80,0x3f,0x00,0x00,0x00,0x00,0x0f,0x00,0x00,0x00,0x00,0x00,
0x1f,0x00,0x00,0x00,0x00,0x06,0x00,0x00,0x00,0x00,0x00,0x1e,0x00,0x00,0x00,
0x00,0x00,0x00,0x00,0x00,0x00,0x00,0x0c,0x00,0x00,0x1f,0x00,0x00,0x00,0x00,
0x00,0x00,0x00,0x00,0x04,0x17,0x1f,0x08,0x00,0x00,0x00,0x00,0x00,0x00,0x00,
0x06,0x1c,0x0f,0x1c,0x00,0x00,0x00,0x00,0x00,0x00,0x00,0x07,0x38,0x07,0x38,
0x00,0x00,0x00,0x00,0x00,0x00,0x00,0x02,0x30,0x03,0x18,0x00,0x00,0x00,0x00,
0x00,0x00,0x00,0x00,0x30,0x03,0x00,0x00,0x00,0x00,0x00,0x00,0x00,0x00,0x00,
0x30,0x03,0x00,0x00,0x00,0x00,0x00,0x00,0x00,0x00,0x00,0x20,0x01,0x00,0x00,
0x00,0x00,0x00,0x00,0x00,0x00,0x00,0x20,0x01,0x00,0x00,0x00,0x00,0x00,0x00,
0x00,0x00,0x00,0x20,0x01,0x00,0x00,0x00,0x00,0x00,0x00,0x00,0x00,0x00,0x20,
0x01,0x00,0x00,0x00,0x00,0x00,0x00,0x00,0x00,0x00,0x20,0x01,0x00,0x00,0x00,
0x00,0x00,0x00,0x00,0x00,0x00,0x20,0x01,0x00,0x00,0x00,0x00,0x00,0x00,0x00,
0x00,0x00,0x20,0x01,0x00,0x00,0x00,0x00,0x00,0x00,0x00,0x00,0x00,0x30,0x03,
0x00,0x00,0x00,0x00,0x00,0x00,0x00,0x00,0x00,0x30,0x03,0x00,0x00,0x00,0x00,
0x00,0x00,0x00,0x00,0x00,0x30,0x03,0x00,0x00,0x00,0x00,0x00,0x00,0x00,0x00,
0x00,0x38,0x07,0x00,0x00,0x00,0x00,0x00,0x00,0x00,0x00,0x00,0x38,0x07,0x00,
0x00,0x00,0x00,0x00,0x00,0x00,0x00,0x00,0x38,0x07,0x00,0x00,0x00,0x00,0x00,
0x00,0x00,0x00,0x00,0x38,0x0f,0x00,0x00,0x00,0x00,0x00,0x00,0x00,0x00,0x00,
0x3c,0x07,0x00,0x00,0x00,0x00,0x00,0x00,0x00,0x00,0x00,0x38,0x03,0x00,0x00,
0x00,0x00,0x00,0x00,0x00,0x00,0x00,0x38,0x07,0x00,0x00,0x00,0x00,0x00,0x00,
0x00,0x00,0x00,0x3c,0x0f,0x00,0x00,0x00,0x00,0x00,0x00,0x00,0x00,0x00,0x3e,
0x1f,0x00,0x00,0x00,0x00,0x00,0x00,0x00,0x00,0x00,0x3e,0x1f,0x00,0x00,0x00,
0x00,0x00,0x00,0x00,0x00,0x00,0x3e,0x1f,0x00,0x00,0x00,0x00,0xfc,0xff,0xff,
0xff,0xff,0x3f,0x3f,0x80,0xff,0xff,0xff,0xff,0xff,0xff,0xff,0xff,0x3f,0xff,
0xff,0xff,0xff,0xff,0xff,0xff,0xff,0xff,0xff,0x3f,0xff,0xff,0xff,0xff,0xff,
0xff,0xff,0xff,0xff,0xff,0x3f,0xff,0xff,0xff,0xff,0xff,0xff,0xff,0xff,0xff,
0xff,0x3f,0xff,0xff,0xff,0xff,0xff,0xff,0xff,0xff,0xff,0xff,0x3f,0xff,0xff,
0xff,0xff,0xff,0xff,0xff,0xff,0xff,0xff,0x3f,0xff,0xff,0xff,0x00,0x00,0x00,
0x00,0x00,0x00,0x00,0x3e,0x07,0x00,0x00,0x00,0x00,0x00,0x00,0x00,0x00,0x00,
0x3c,0x03,0x00,0x00,0x00,0x00,0x00,0x00,0x00,0x00,0x00,0x3c,0x03,0x00,0x00,
0x00,0x00,0x00,0x00,0x00,0x00,0x00,0x38,0x03,0x00,0x00,0x00,0x00,0x00,0x00,
0x00,0x00,0x00,0x38,0x01,0x00,0x00,0x00,0x00,0x00,0x00,0x00,0x00,0x00,0x38,
0x01,0x00,0x00,0x00,0x00,0x00,0x00,0x00,0x00,0x00,0x38,0x01,0x00,0x00,0x00,
0x00,0x00,0x00,0x00,0x00,0x00,0x30,0x00,0x00,0x00,0x00,0x00,0x00,0x00,0x00,
0x00,0x00,0x30,0x00,0x00,0x00,0x00,0x00,0x00,0x00,0x00,0x00,0x00,0x30,0x00,
0x00,0x00,0x00,0x00,0x00,0x00,0x00,0x00,0x00,0x20,0x00,0x00,0x00,0x00,0x00,
0x00,0x00,0x00,0x00,0x00,0x20,0x00,0x00,0x00,0x00,0x00,0x00,0x00,0x00,0x00,
0x00,0x20,0x00,0x00,0x00,0x00,0x00,0x00,0x00,0x00,0x00,0x00,0x20,0x00,0x00,
0x00,0x00,0x00,0x00,0x00,0x00,0x00,0x00,0x20,0x00,0x40,0x00,0x00,0x00,0x00,
0x00,0x00,0x00,0x00,0x00,0x00,0x40,0x00,0x00,0x00,0x00,0x00,0x00,0x00,0x00,
0x00,0x00,0x60,0x00,0x00,0x00,0x00,0x00,0x00,0x00,0x00,0x00,0x00,0x60,0x00,
0x00,0x00,0x00,0x00,0x00,0x00,0x00,0x00,0x00,0x60,0x00,0x00,0x00,0x00,0x00,
0x00,0x40,0x00,0x00,0x00,0x70,0x00,0x00,0x00,0x00,0x00,0x00,0xc0,0x00,0x00,
0x00,0xf0,0x00,0x00,0x00,0x00,0x00,0x00,0xc0,0x00,0x00,0x00,0xf0,0x00,0x00,
0x00,0x00,0x00,0x00,0xc0,0x00,0x00,0x00,0xf8,0x00,0x00,0x00,0x00,0x00,0x00,
0xc0,0x01,0x00,0x00,0xf8,0x00,0x00,0x00,0x00,0x00,0x00,0xc0,0x01,0x00
};