#define image_width 86
#define image_height 64
static char image_bits[] = {
0x00,0x00,0x00,0x40,0x00,0x00,0x00,0x00,0x00,0x00,0x00,0x00,0x00,0x00,0xc0,
0x00,0x00,0x00,0x00,0x00,0x00,0x00,0x00,0x00,0x00,0x80,0x00,0x00,0x00,0x00,
0x00,0x00,0x00,0x00,0x00,0x00,0x80,0x00,0x00,0x00,0x00,0x00,0x00,0x00,0x00,
0x00,0x00,0x80,0x01,0x00,0x00,0x00,0x00,0x00,0x00,0x00,0x00,0x00,0x80,0x01,
0x00,0x00,0x00,0x00,0x00,0x00,0x00,0x00,0x00,0x00,0x01,0x00,0x00,0x00,0x00,
0x00,0x00,0x00,0x00,0x00,0x00,0x01,0x00,0x00,0x00,0x00,0x00,0x00,0x00,0x00,
0x00,0x00,0x03,0x00,0x00,0x00,0x00,0x00,0x00,0x00,0x00,0x00,0x00,0x03,0x00,
0x00,0x00,0x00,0x00,0x00,0x00,0x00,0x00,0x00,0x02,0x00,0x00,0x00,0x00,0x00,
0x00,0x00,0x00,0x00,0x00,0x06,0x00,0x00,0x00,0x00,0x00,0x00,0x00,0x00,0x00,
0x00,0x06,0x00,0x00,0x00,0x00,0x00,0x00,0x00,0x00,0x00,0x00,0x04,0x00,0x00,
0x00,0x00,0x00,0x00,0x00,0x00,0x00,0x00,0x04,0x00,0x00,0x00,0x00,0x00,0x00,
0x00,0x00,0x00,0x00,0x0c,0x00,0x00,0x00,0x00,0x00,0x00,0x00,0x00,0x00,0x00,
0x0c,0x0c,0x00,0x00,0x00,0x00,0x00,0x00,0x00,0x00,0x00,0x08,0xbe,0x7f,0x00,
0x00,0x00,0x00,0x00,0x00,0x00,0x00,0xc8,0xff,0xff,0x01,0x00,0x00,0x00,0x00,
0x00,0x00,0x00,0xd8,0xff,0xff,0x01,0x00,0x00,0x00,0x00,0x00,0x00,0x00,0xd8,
0xff,0xff,0x03,0x00,0x00,0x00,0x00,0x00,0x00,0x00,0xf0,0xff,0xff,0x03,0x00,
0x00,0x00,0x00,0x00,0x00,0x00,0xb0,0xff,0xff,0x01,0x00,0x00,0x00,0x00,0x00,
0x00,0x00,0xf0,0xff,0xff,0x01,0x00,0x00,0x00,0x00,0x00,0x00,0x00,0xe0,0xff,
0xff,0x01,0x00,0x00,0x00,0x00,0x00,0x00,0x00,0xe0,0xff,0x1e,0x00,0x00,0x00,
0x00,0x00,0x00,0x00,0x00,0xe0,0xff,0x00,0x00,0x00,0x00,0x00,0x00,0x00,0x00,
0x00,0xe0,0xff,0x00,0x00,0x00,0x00,0x00,0x00,0x00,0x00,0x00,0xe0,0xff,0x01,
0x00,0x00,0x00,0x00,0xff,0xff,0xff,0xff,0xff,0xff,0xff,0xff,0xff,0xff,0x3f,
0x00,0x00,0x00,0x00,0xf0,0xff,0x00,0x00,0x00,0x00,0x00,0x00,0x00,0x00,0x00,
0xf0,0xff,0x00,0x00,0x00,0x00,0x00,0x00,0x00,0x00,0x00,0xf0,0xff,0x00,0x00,
0x00,0x00,0x00,0x00,0x00,0x00,0x00,0xfc,0xff,0x00,0x00,0x00,0x00,0x00,0x00,
0x00,0x00,0x80,0xff,0x3f,0x00,0x00,0x00,0x00,0x00,0x00,0x00,0x00,0xe0,0xff,
0x1f,0x00,0x00,0x00,0x00,0x00,0x00,0x00,0x00,0xf0,0xff,0x3f,0x00,0x00,0x00,
0x00,0x00,0x00,0x00,0x00,0xf8,0xff,0x3f,0x00,0x00,0x00,0x00,0x00,0x00,0x00,
0x00,0xf8,0xff,0x7f,0x00,0x00,0x00,0x00,0x00,0x00,0x00,0x00,0xf8,0xff,0xff,
0x00,0x00,0x00,0x00,0x00,0x00,0x00,0x00,0xf8,0xff,0xff,0x01,0x00,0x00,0x00,
0x00,0x00,0x00,0x00,0xf8,0xff,0xff,0x01,0x00,0x00,0x00,0x00,0x00,0x00,0x00,
0xf8,0xff,0xff,0x03,0x00,0x00,0x00,0x00,0x00,0x00,0x00,0xf8,0xff,0xff,0x03,
0x00,0x00,0x00,0x00,0x00,0x00,0x00,0xf8,0xff,0xff,0x03,0x00,0x00,0x00,0x00,
0x00,0x00,0x00,0xf8,0xff,0xff,0x07,0x00,0x00,0x00,0x00,0x00,0x00,0x00,0xf8,
0xff,0xff,0x03,0x00,0x00,0x00,0x00,0x00,0x00,0x00,0xf8,0xff,0xff,0x03,0x00,
0x00,0x00,0x00,0x00,0x00,0x00,0xf0,0xff,0xff,0x03,0x00,0x00,0x00,0x00,0x00,
0x00,0x00,0xf0,0xff,0xff,0x01,0x00,0x00,0x00,0x00,0x00,0x00,0x00,0xe0,0xff,
0xff,0x01,0x00,0x00,0x00,0x00,0x00,0x00,0x00,0xc0,0xff,0xff,0x01,0x00,0x00,
0x00,0x00,0x00,0x00,0x00,0x80,0xff,0x3f,0x03,0x00,0x00,0x00,0x00,0x00,0x00,
0x00,0x00,0xee,0x3f,0x03,0x00,0x00,0x00,0x00,0x00,0x00,0x00,0x00,0x00,0x2f,
0x06,0x00,0x00,0x00,0x00,0x00,0x00,0x00,0x00,0x00,0x6f,0x06,0x00,0x00,0x00,
0x00,0x00,0x00,0x00,0x00,0x00,0x67,0x0c,0x00,0x00,0x00,0x00,0x00,0x00,0x00,
0x00,0x00,0x40,0x0c,0x00,0x00,0x00,0x00,0x00,0x00,0x00,0x00,0x00,0x40,0x18,
0x00,0x00,0x00,0x00,0x00,0x00,0x00,0x00,0x00,0xc0,0x18,0x00,0x00,0x00,0x00,
0x00,0x00,0x00,0x00,0x00,0xc0,0x30,0x00,0x00,0x00,0x00,0x00,0x00,0x00,0x00,
0x00,0x80,0x30,0x00,0x00,0x00,0x00,0x00,0x00,0x00,0x00,0x00,0x80,0x61,0x00,
0x00,0x00,0x00,0x00,0x00,0x00,0x00,0x00,0x80,0x61,0x00,0x00,0x00,0x00
};