#define image_width 86
#define image_height 64
static char image_bits[] = {
0x00,0x00,0x00,0x00,0x00,0x00,0x00,0x00,0x00,0xfe,0x3f,0x00,0x00,0x00,0x00,
0x00,0x00,0x00,0x00,0x00,0xfe,0x3f,0x00,0x00,0x00,0x00,0x00,0x00,0x00,0x00,
0x00,0xfe,0x3f,0x00,0x00,0x00,0x00,0x00,0x00,0x00,0x00,0x00,0xfe,0x3f,0x00,
0x00,0x00,0x00,0x00,0x00,0x00,0x00,0x00,0xfe,0x3f,0x00,0x00,0x00,0x00,0x00,
0x00,0x00,0x00,0x00,0xfe,0x3f,0x00,0x00,0x00,0x00,0x00,0x00,0x00,0x00,0x00,
0xfe,0x3f,0x00,0x00,0x00,0x00,0x00,0x00,0x00,0x00,0x00,0xfe,0x3f,0x00,0x00,
0x00,0x00,0x00,0x00,0x00,0x00,0x00,0xfe,0x3f,0x00,0x00,0x00,0x00,0x00,0x00,
0x00,0x00,0x00,0xfe,0x3f,0x00,0x00,0x00,0x00,0x00,0x00,0x00,0x00,0x00,0xbe,
0x3f,0x00,0x00,0x00,0x00,0x00,0x00,0x00,0x00,0x00,0x06,0x26,0x00,0x00,0x00,
0x00,0x00,0x00,0x00,0x00,0x00,0x00,0x20,0x00,0x00,0x00,0x00,0x00,0x00,0x00,
0x00,0x00,0x01,0x20,0x00,0x00,0x00,0x00,0x00,0x00,0x00,0x00,0x80,0x01,0x00,
0x00,0x00,0x00,0x00,0x00,0x00,0x00,0x00,0xc0,0x01,0x00,0x00,0x00,0x00,0x00,
0x00,0x00,0x00,0x00,0xe0,0x01,0x00,0x00,0x00,0x00,0x00,0x00,0x00,0x00,0x00,
0xfe,0x01,0x00,0x00,0x00,0x00,0x00,0x00,0x00,0x00,0x00,0xe6,0x01,0x00,0x00,
0x00,0x00,0x00,0x00,0x00,0x00,0x00,0xf2,0x01,0x00,0x00,0x00,0x00,0x00,0x00,
0x00,0x00,0x00,0xf2,0x01,0x00,0x00,0x00,0x00,0x00,0x00,0x00,0x00,0x00,0xf2,
0x01,0x30,0x00,0x00,0x00,0x00,0x00,0x00,0x00,0x80,0xf7,0x01,0x3c,0x00,0x00,
0x00,0x00,0x00,0x00,0x00,0xc0,0xff,0x01,0x3c,0x00,0x00,0x00,0x00,0x00,0x00,
0x00,0x80,0xff,0x01,0x3e,0x00,0x00,0x00,0x00,0x00,0xc0,0xff,0xff,0xff,0x01,
0x3f,0x00,0x00,0x00,0xf8,0x07,0xf0,0xff,0xff,0xff,0x81,0x3f,0x00,0x00,0x00,
0xfe,0xff,0xff,0xff,0xff,0xff,0x01,0x3c,0x00,0x00,0x00,0xff,0xff,0xff,0x1f,
0xff,0xff,0x01,0x08,0x00,0x00,0x00,0xfc,0xff,0xff,0x1f,0xc0,0xff,0x01,0x00,
0x00,0x00,0x00,0x00,0x00,0x80,0x00,0xc0,0xff,0x01,0x00,0x00,0x00,0x00,0x00,
0x00,0x00,0x00,0x40,0xfe,0x01,0x00,0x00,0x00,0x00,0x00,0x00,0x00,0x00,0x40,
0xfc,0x01,0x00,0x00,0x00,0x00,0x00,0x00,0x00,0x00,0x40,0xf8,0x01,0x00,0x00,
0x00,0x00,0x00,0x00,0x00,0x00,0x40,0xf8,0xc1,0x00,0x00,0x00,0x00,0x00,0x00,
0x00,0x00,0x40,0xfc,0xe1,0x1f,0x00,0x00,0x00,0x00,0x00,0x00,0x00,0x20,0xfc,
0xe1,0x3f,0x00,0x00,0x00,0x00,0x00,0x00,0x00,0x30,0xfc,0xe1,0x3f,0x00,0x00,
0x00,0x00,0x00,0x00,0x00,0x18,0xfc,0xe1,0x3f,0x00,0x00,0x00,0x00,0x00,0x00,
0x00,0x0c,0xfe,0xe1,0x3f,0x00,0x00,0x00,0x00,0x00,0x00,0x00,0x06,0xfe,0xe1,
0x3f,0x00,0x00,0x00,0x00,0x00,0x00,0x80,0x03,0xfe,0xc1,0x3f,0x00,0x00,0x00,
0x00,0x00,0x00,0x00,0x00,0xfe,0x81,0x3f,0x00,0x00,0x00,0x00,0x00,0x00,0x00,
0x00,0xff,0x01,0x3f,0x00,0x00,0x00,0x00,0x00,0x00,0x00,0x00,0xff,0x01,0x3c,
0x00,0x00,0x00,0x00,0x00,0x00,0x00,0x00,0xff,0x01,0x1c,0x00,0x00,0x00,0x00,
0x00,0x00,0x00,0x80,0xff,0x01,0x1c,0x00,0x00,0x00,0x00,0x00,0x00,0x00,0x80,
0xff,0x01,0x1c,0x00,0x00,0x00,0x00,0x00,0x00,0x00,0xc0,0xff,0x01,0x0c,0x00,
0x00,0x00,0x00,0x00,0x00,0x00,0xc0,0xff,0x01,0x3c,0x00,0x00,0x00,0x00,0x00,
0x00,0x00,0xc0,0xff,0x01,0x3c,0x00,0x00,0x00,0x00,0x00,0x00,0x00,0xc0,0xff,
0x01,0x38,0x00,0x00,0x00,0x00,0x00,0x00,0x00,0xc0,0xff,0x01,0x30,0x00,0x00,
0x00,0x00,0x00,0x00,0x00,0xc0,0xff,0x01,0x20,0x00,0x00,0x00,0x00,0x00,0x00,
0x00,0xe0,0xff,0x01,0x00,0x00,0x00,0x00,0x00,0x00,0x00,0x00,0xe0,0xff,0x01,
0x00,0x00,0x00,0x00,0x00,0x00,0x00,0x00,0xe0,0xff,0x01,0x20,0x00,0x00,0x00,
0x00,0x00,0x00,0x00,0xe0,0xff,0x01,0x38,0x00,0x00,0x00,0x00,0x00,0x00,0x00,
0xc0,0xff,0x01,0x3c,0x00,0x00,0x00,0x00,0x00,0x00,0x00,0x80,0xff,0x01,0x38,
0x00,0x00,0x00,0x00,0x00,0x00,0x00,0x00,0xfe,0x01,0x38,0x00,0x00,0x00,0x00,
0x00,0x00,0x00,0x00,0xfc,0x0f,0x38,0x00,0x00,0x00,0x00,0x00,0x00,0x00,0x00,
0xfc,0x0f,0x30,0x00,0x00,0x00,0x00,0x00,0x00,0x00,0x00,0xfc,0x0d,0x30
};