#define image_width 86
#define image_height 64
static char image_bits[] = {
0x00,0x00,0x00,0x00,0x00,0x00,0x00,0x00,0x00,0x00,0x00,0x00,0x00,0x00,0x00,
0x00,0x00,0x00,0x00,0x00,0x00,0x00,0x08,0x00,0x00,0x00,0x00,0x00,0x00,0x00,
0x00,0x00,0x00,0x00,0x00,0x00,0x80,0x3f,0x00,0x00,0x00,0x00,0x00,0x00,0x00,
0x00,0x00,0xf0,0xff,0x00,0x00,0x00,0x00,0x00,0x00,0x00,0x00,0x00,0xfe,0xff,
0x00,0x00,0x00,0x00,0x00,0x00,0x00,0x00,0x00,0xff,0xff,0x00,0x00,0x00,0x00,
0x00,0x00,0x00,0x00,0xc0,0xff,0x7f,0x00,0x00,0x00,0x00,0x00,0x00,0x00,0x00,
0xe0,0xff,0x3f,0x00,0x00,0x00,0x00,0x00,0x00,0x00,0x00,0xf8,0xff,0x7f,0x00,
0x00,0x00,0x00,0x00,0x00,0x00,0x80,0xfd,0xff,0x3f,0x00,0x00,0x00,0x00,0x00,
0x00,0x00,0x00,0xff,0xff,0x1f,0x00,0x00,0x00,0x00,0x00,0x00,0x00,0x00,0xfe,
0xff,0x0f,0x00,0x00,0x00,0x00,0x00,0x00,0x00,0x00,0xff,0xff,0x0f,0x00,0x00,
0x00,0x00,0x00,0x00,0x00,0x80,0xff,0xff,0x3f,0x00,0x00,0x00,0x00,0x00,0x00,
0x00,0x80,0xff,0xff,0x3f,0x00,0x00,0x00,0x00,0x00,0x00,0x00,0xc0,0xff,0xff,
0x7f,0x00,0x00,0x00,0x00,0x00,0x00,0x02,0xc0,0xff,0xff,0x7f,0xc0,0x01,0x00,
0x00,0x00,0x00,0x01,0xe0,0xff,0xff,0x7f,0x00,0x00,0x00,0x00,0x00,0x00,0x00,
0xe0,0xff,0xff,0x3f,0x00,0x00,0x00,0x00,0x00,0x00,0x00,0xf0,0xff,0xff,0x1f,
0x00,0x00,0x00,0x00,0x00,0x00,0x00,0xf0,0xff,0xff,0x1f,0x01,0x00,0x00,0x00,
0x00,0x01,0x00,0xf0,0xff,0xff,0x1f,0x00,0x00,0x00,0x00,0x00,0x01,0x00,0xf0,
0xff,0xff,0x03,0x00,0x00,0x00,0x00,0x00,0x00,0x00,0xf8,0xff,0xf7,0x07,0x00,
0x00,0x00,0x08,0x18,0x00,0x00,0xf8,0xff,0xc3,0x0f,0x00,0x00,0x00,0x00,0x00,
0x00,0x00,0xf8,0xff,0xc0,0x1f,0x00,0x00,0x00,0x00,0x00,0x00,0x00,0xf8,0x7f,
0xc8,0x3f,0x00,0x00,0x00,0x00,0x00,0x00,0x00,0xf8,0x7f,0xd8,0x7f,0x00,0x00,
0x00,0x00,0x00,0x00,0x00,0xf8,0x3f,0xc0,0xff,0x00,0x00,0x00,0x00,0x00,0x00,
0x00,0xf0,0x0f,0xc0,0xff,0x00,0x00,0x00,0x00,0x00,0x00,0x00,0xf0,0x07,0xc0,
0xff,0xc1,0x00,0x00,0x00,0x00,0x00,0x00,0xf0,0x07,0xc0,0xff,0x86,0x01,0x00,
0x00,0x00,0x00,0x00,0xf0,0x03,0xe0,0xff,0x0c,0x01,0x00,0x00,0x00,0x00,0x00,
0xe0,0x00,0xe0,0xff,0x3e,0x01,0x00,0x00,0x00,0x00,0x00,0x80,0x02,0xe0,0xff,
0xff,0x01,0x00,0x00,0x00,0x00,0x00,0x00,0x00,0xe0,0xff,0xdf,0x00,0x00,0x00,
0x00,0x00,0x00,0x00,0x00,0xe0,0xff,0x07,0x00,0x00,0x00,0x00,0x00,0x00,0x00,
0x00,0xd0,0xff,0x03,0x00,0x00,0x00,0x00,0x00,0x00,0x00,0x00,0xc0,0xff,0x00,
0x00,0x00,0x00,0x00,0x00,0x00,0x00,0x00,0x80,0xff,0x00,0x00,0x00,0x10,0x00,
0x00,0x00,0x00,0x00,0xc0,0xff,0x00,0x00,0x00,0x00,0x00,0x00,0x00,0x00,0x00,
0xe0,0xff,0x00,0x00,0x00,0x00,0x00,0x00,0x0f,0x00,0x00,0xe0,0xff,0x00,0x00,
0x00,0x00,0x00,0x00,0x00,0x00,0x00,0xf0,0xff,0x00,0x00,0x00,0x00,0x00,0x00,
0x00,0x00,0x00,0xf8,0xff,0x00,0x00,0x00,0x00,0x00,0x00,0x00,0x00,0x00,0xfc,
0xff,0x00,0x00,0x00,0x00,0x00,0x00,0x00,0x00,0x00,0xfc,0xff,0x01,0x00,0x00,
0x00,0x00,0x00,0x80,0x00,0x00,0xfe,0xff,0x01,0x00,0x00,0x00,0x00,0x00,0xe0,
0x01,0x00,0xff,0xff,0x01,0x00,0x00,0x00,0x00,0x00,0xf0,0x00,0xc0,0xff,0xff,
0x01,0x00,0x00,0x00,0x00,0x00,0x38,0x00,0xf0,0xff,0xff,0x01,0x00,0x00,0x00,
0x00,0x00,0x00,0x00,0xf8,0xff,0xff,0x01,0x00,0x00,0x00,0x00,0x00,0x00,0x00,
0xff,0xff,0xff,0x01,0x00,0x00,0x00,0x00,0x00,0x00,0xc0,0xff,0xff,0xff,0x01,
0x00,0x00,0x00,0x00,0x20,0x00,0xe0,0xff,0xff,0xff,0x01,0x00,0x00,0x00,0x00,
0x00,0x00,0xf0,0xff,0xff,0xff,0x01,0x00,0x00,0x00,0x00,0x00,0x00,0xf0,0xff,
0xff,0xff,0x01,0x00,0x00,0x00,0x00,0x00,0x00,0xf8,0xff,0xff,0xff,0x03,0x00,
0x00,0x00,0x00,0x00,0x00,0xf8,0xff,0xff,0xff,0x03,0x10,0x00,0x00,0x00,0x00,
0x00,0xe0,0xff,0xff,0xff,0x03,0x30,0x00,0x00,0x00,0x00,0x00,0x00,0xfe,0xff,
0xff,0x03,0x00,0x00,0x00,0x00,0x00,0x00,0x00,0xfc,0xff,0xff,0x03,0x00,0x00,
0x00,0x00,0x00,0x00,0x00,0xf8,0xff,0xff,0x03,0x00,0x00,0x00,0x00,0x00
};