#define image_width 86
#define image_height 64
static char image_bits[] = {
0x00,0x00,0x00,0x00,0x00,0x00,0x00,0x00,0x00,0x00,0x00,0x00,0x00,0x00,0x00,
0x00,0x00,0x00,0x00,0x00,0x00,0x00,0x00,0x00,0x00,0x00,0x00,0x00,0x00,0x00,
0x00,0x00,0x00,0x00,0x00,0x00,0x00,0x00,0x00,0x00,0x00,0x00,0x00,0x00,0x00,
0x00,0x00,0x00,0x00,0x00,0x00,0x00,0x00,0x00,0x00,0x00,0x00,0x00,0x00,0x00,
0x00,0x00,0x00,0x00,0x00,0x00,0x00,0x00,0x00,0x00,0x00,0x00,0x00,0x00,0x00,
0x00,0x00,0x00,0x00,0x00,0x00,0x00,0x00,0x00,0x00,0x00,0x00,0x00,0x00,0x00,
0x00,0x00,0x00,0x00,0x00,0x00,0x00,0x00,0x00,0x00,0x00,0x00,0x00,0x00,0x00,
0x00,0x00,0x00,0x00,0x00,0x00,0x00,0x00,0x00,0x00,0x00,0x00,0x00,0x00,0x00,
0x00,0x00,0x00,0x00,0x00,0x00,0x00,0x00,0x00,0x00,0x00,0x00,0x00,0x00,0x00,
0x00,0x00,0x00,0x00,0x00,0x00,0x00,0x00,0x00,0x00,0x00,0x00,0x00,0x00,0x80,
0x80,0x00,0x00,0x00,0x00,0x00,0x00,0x00,0x00,0x00,0xc0,0xc1,0x01,0x00,0x00,
0x00,0x00,0x00,0x00,0x00,0x00,0xc0,0xe3,0x01,0x00,0x00,0x00,0x00,0x00,0x00,
0x00,0x00,0x80,0x63,0x00,0x00,0x00,0x00,0x00,0x00,0x00,0x00,0x00,0x00,0x67,
0x00,0x00,0x00,0x00,0x00,0x00,0x00,0x00,0x00,0x00,0x66,0x00,0x00,0x00,0x00,
0x00,0x00,0x00,0x00,0x00,0x00,0x6e,0x00,0x00,0x00,0x00,0x00,0x00,0x00,0x00,
0x70,0x00,0x7c,0x00,0x00,0x00,0x00,0x00,0x00,0x00,0x00,0xf0,0x00,0xfe,0x00,
0x00,0x00,0x00,0x00,0x00,0x00,0x00,0xf0,0x00,0xfe,0x01,0x00,0x00,0x00,0x00,
0x00,0x00,0x00,0xf0,0x00,0xff,0x03,0x00,0x00,0x00,0x00,0x00,0x00,0x00,0xe0,
0x00,0xff,0x03,0x00,0x00,0x00,0x00,0x00,0x00,0x00,0xe0,0x01,0xff,0x03,0x00,
0x00,0x00,0x00,0x00,0x00,0x00,0xe0,0x01,0xfe,0x07,0x00,0x00,0x00,0x00,0x00,
0x00,0x00,0xc0,0x01,0xfe,0x07,0x00,0x00,0x00,0x00,0x00,0x00,0x00,0xc0,0x07,
0xfe,0x07,0x00,0x00,0x00,0x00,0x00,0x00,0x00,0x80,0xff,0xff,0x07,0x00,0x00,
0x00,0x00,0x00,0x00,0x00,0x80,0xff,0xff,0x07,0x00,0x00,0x00,0x00,0x00,0x00,
0x00,0x00,0xfe,0xff,0x07,0x00,0x00,0x00,0x00,0x00,0x00,0x00,0x00,0xf0,0xff,
0x07,0x00,0x00,0x00,0x00,0x00,0x00,0x00,0x00,0x00,0xff,0x07,0x00,0x00,0x00,
0x00,0x00,0x00,0x00,0x00,0x00,0xff,0x0f,0x00,0x00,0x00,0x00,0x00,0x00,0x00,
0x00,0x00,0xfd,0x0f,0x00,0x00,0x00,0x00,0x00,0x00,0x00,0x00,0x80,0xf9,0x1f,
0x00,0x00,0x00,0x00,0x00,0x00,0x00,0x00,0x80,0xf9,0x1f,0x00,0x00,0x00,0x00,
0x00,0x00,0x00,0x00,0x80,0xf8,0x1f,0x00,0x00,0x00,0x00,0x00,0x00,0x00,0x00,
0xc0,0xf8,0x1f,0x00,0x00,0x00,0x00,0x00,0x00,0x00,0x00,0x40,0xf8,0x3f,0x00,
0x00,0x00,0x00,0x00,0x00,0x00,0x00,0x60,0xf8,0x3f,0x00,0x00,0x00,0x00,0x00,
0x00,0x00,0x00,0x20,0xf8,0x1f,0x00,0x00,0x00,0x00,0x00,0x00,0x00,0x00,0x00,
0xfc,0x1f,0x00,0x00,0x00,0x00,0x00,0x00,0x00,0x00,0x00,0xfe,0x1f,0x00,0x00,
0x00,0x00,0x00,0x00,0x00,0x00,0x00,0xfe,0x1f,0x00,0x00,0x00,0x00,0x00,0x00,
0x00,0x00,0x00,0xfe,0x1f,0x00,0x00,0x00,0x00,0x00,0x00,0x00,0x00,0x00,0xfe,
0x1f,0x00,0x00,0x00,0x00,0x00,0x00,0x00,0x00,0x00,0xff,0x3f,0x00,0x00,0x00,
0x00,0x00,0x00,0x00,0x00,0x80,0xff,0x7f,0x00,0x00,0x00,0x00,0x00,0x00,0x00,
0x00,0x80,0xff,0x7f,0x00,0x00,0x00,0x00,0x00,0x00,0x00,0x00,0x80,0xff,0x3f,
0x00,0x00,0x00,0x00,0x00,0x00,0x00,0x00,0x00,0xfe,0x1f,0x00,0x00,0x00,0x00,
0x00,0x00,0x00,0x00,0x00,0xfe,0x07,0x00,0x00,0x00,0x00,0x00,0x00,0x00,0x00,
0x00,0xfe,0x07,0x00,0x00,0x00,0x00,0x00,0x00,0x00,0x00,0x00,0x9f,0x07,0x00,
0x00,0x00,0x00,0x00,0x00,0x00,0x00,0x00,0x9f,0x07,0x00,0x00,0x00,0x00,0x00,
0x00,0x00,0x00,0x00,0x9f,0x07,0x00,0x00,0x00,0x00,0x00,0x00,0x00,0x00,0x00,
0x8f,0x07,0x00,0x00,0x00,0x00,0x00,0x00,0x00,0x00,0x80,0x8f,0x07,0x00,0x00,
0x00,0x00,0x00,0x00,0x00,0x00,0x80,0x87,0x07,0x00,0x00,0x00,0x00,0x00,0x00,
0x00,0x00,0x80,0x87,0x03,0x00,0x00,0x00,0x00,0x00,0x00,0x00,0x00,0xc0,0x83,
0x03,0x00,0x00,0x00,0x00,0x00,0x00,0x00,0x00,0xc0,0x83,0x03,0x00,0x00
};