#define image_width 86
#define image_height 64
static char image_bits[] = {
0x00,0x00,0x00,0x00,0x00,0x00,0x41,0x00,0x00,0x00,0x00,0x00,0x00,0x00,0x00,
0x00,0x00,0x03,0x00,0xf0,0x03,0x00,0x00,0x00,0x00,0x00,0x00,0x00,0x06,0xf8,
0xff,0x07,0x00,0x00,0x00,0x00,0x00,0x00,0x00,0xfc,0xff,0xff,0x0f,0x00,0x00,
0x00,0x00,0x00,0x00,0x00,0xf8,0xff,0xff,0x0f,0x00,0x00,0x00,0x00,0x00,0x00,
0x00,0xf0,0xff,0xff,0x0f,0x00,0x00,0x00,0x00,0x00,0x00,0x00,0x00,0x03,0xfc,
0x0f,0x00,0x00,0x00,0x00,0x00,0x00,0x00,0x00,0x00,0xfc,0x0f,0x00,0x00,0x00,
0x00,0x00,0x00,0x00,0x00,0x00,0xfc,0x0f,0x00,0x00,0x00,0x00,0x00,0x00,0x00,
0x00,0x00,0xf8,0x87,0x00,0x00,0x00,0x00,0x00,0x00,0x18,0x00,0x00,0xf0,0x01,
0x00,0x00,0x00,0x00,0x00,0x00,0x1e,0x00,0x00,0x00,0x00,0x00,0x00,0x00,0x00,
0x00,0xf0,0x3f,0x00,0x00,0x00,0x00,0x00,0x00,0x00,0x00,0x00,0xf8,0x3f,0x00,
0x00,0x00,0x00,0x00,0x00,0x00,0x00,0x00,0xfc,0x3f,0x00,0x00,0x00,0x00,0x00,
0x00,0x00,0x00,0x00,0xfe,0x3f,0x00,0x00,0x00,0x00,0x00,0x00,0x00,0x00,0x00,
0xfe,0x3f,0x00,0x00,0x00,0x00,0x00,0x00,0x00,0x00,0x00,0xfe,0x3f,0x00,0x00,
0x00,0x00,0x00,0x00,0x00,0x00,0x00,0xfe,0x0f,0x00,0x00,0x00,0x00,0x00,0x00,
0x00,0x00,0x00,0xfc,0x03,0x00,0x00,0x00,0x00,0x00,0x00,0x00,0x00,0x00,0xf8,
0x03,0x00,0x00,0x00,0x00,0x00,0x00,0x00,0x00,0x00,0xf0,0x01,0x00,0x00,0x00,
0x00,0x00,0x00,0x00,0x00,0x00,0xf8,0x07,0x00,0x20,0x00,0x00,0x00,0x00,0x38,
0x00,0x00,0xfc,0x0f,0x00,0x20,0x00,0x00,0x00,0x00,0x78,0x00,0x00,0xfe,0x0f,
0x00,0x00,0x00,0x00,0x00,0x00,0x78,0x00,0x00,0xff,0x0f,0x00,0x00,0x00,0x00,
0x00,0x00,0x78,0x00,0x00,0xff,0x0f,0x00,0x00,0x06,0x00,0x00,0x00,0x78,0x00,
0x00,0xff,0x07,0x00,0x00,0x00,0x00,0x00,0x00,0x78,0x00,0x00,0xff,0x03,0x00,
0x00,0x00,0x00,0x00,0x00,0x7c,0x00,0x80,0xff,0x03,0x00,0x00,0x00,0x00,0x00,
0x00,0xfc,0x00,0x80,0xff,0x03,0x00,0x00,0x00,0x00,0x00,0x00,0xfc,0x00,0xc0,
0xfd,0x03,0x00,0x00,0x00,0x00,0x00,0x00,0xfe,0x81,0xc1,0xfc,0x01,0x00,0x00,
0x00,0x00,0x00,0x00,0xfc,0x01,0xee,0xfc,0x81,0x07,0x00,0x00,0x00,0x00,0x00,
0xfc,0x00,0xf8,0xfc,0xfb,0x07,0x00,0x00,0x00,0x00,0x00,0xfc,0x00,0xf0,0xff,
0xff,0x00,0x00,0x00,0x00,0x00,0x00,0xfc,0x40,0xf8,0xff,0x07,0x00,0x00,0x00,
0x00,0x00,0x00,0xf8,0x40,0xfc,0xff,0x03,0x00,0x00,0x00,0x00,0x00,0x00,0xfc,
0xf0,0xff,0xff,0x07,0x00,0x00,0x00,0x00,0x00,0x00,0xfc,0xf0,0x9f,0xff,0x1f,
0x00,0x00,0x00,0x00,0x00,0x00,0xfc,0x00,0x80,0xff,0xff,0x00,0x00,0x00,0x00,
0x00,0x00,0xfe,0x00,0xe0,0xff,0xc7,0x07,0x00,0x00,0x00,0x00,0x00,0xfc,0x00,
0xf0,0xff,0x0f,0x3e,0x00,0x00,0x00,0x00,0x00,0x6c,0x00,0xf8,0xff,0x0f,0x00,
0x00,0x00,0x00,0x00,0x80,0x7f,0x00,0xf8,0xff,0x0f,0x00,0x00,0x00,0x00,0x00,
0xfe,0x03,0x00,0xfc,0xff,0x0f,0x00,0x00,0x00,0x00,0x00,0x00,0x00,0x00,0xfe,
0xff,0x1f,0x00,0x00,0x00,0x00,0x00,0x00,0x00,0x00,0xfe,0xff,0x1f,0x00,0x00,
0x00,0x00,0x00,0x00,0x00,0x00,0xfe,0xff,0x1f,0x00,0x00,0x00,0x00,0x00,0x00,
0x00,0x00,0xfe,0xff,0x0f,0x00,0x00,0x00,0x00,0x00,0x00,0x00,0x00,0xfc,0xff,
0x0f,0x00,0x00,0x00,0x00,0x00,0x00,0x00,0x00,0xf8,0xff,0x07,0x00,0x00,0x00,
0x00,0x00,0x00,0x00,0x00,0xe0,0xff,0x0f,0x00,0x00,0x00,0x00,0x00,0x00,0x00,
0x00,0x00,0x2f,0x0e,0x00,0x00,0x00,0x00,0x00,0x00,0x00,0x00,0x00,0x07,0x0e,
0x00,0x00,0x00,0x00,0x00,0x00,0x00,0x00,0x00,0x07,0x1e,0x00,0x00,0x00,0x00,
0x00,0x00,0x00,0x00,0x00,0x07,0x1c,0x00,0x00,0x00,0x00,0x00,0x00,0x00,0x00,
0x00,0x07,0x1c,0x00,0x00,0x00,0x00,0x00,0x00,0x00,0x00,0x00,0x07,0x1c,0x00,
0x00,0x00,0x00,0x00,0x00,0x00,0x00,0x00,0x07,0x18,0x00,0x00,0x00,0x00,0x00,
0x00,0x00,0x00,0x00,0x07,0x18,0x00,0x00,0x00,0x00,0x00,0x00,0x00,0x00,0x00,
0x03,0x18,0x00,0x00,0x00,0x00,0x00,0x00,0x00,0x00,0x00,0x03,0x38,0x00,0x00,
0x00,0x0c,0x00,0x00,0x00,0x00,0x00,0x03,0x38,0x00,0x00,0x00,0x00,0x00
};