#define image_width 86
#define image_height 64
static char image_bits[] = {
0x00,0x00,0x00,0x00,0x00,0x00,0x00,0x00,0x00,0x00,0x00,0x00,0x00,0x00,0x00,
0x00,0x00,0x00,0x00,0x00,0x00,0x00,0x00,0x00,0x00,0x00,0x00,0x00,0x00,0x00,
0x00,0x00,0x00,0x00,0x00,0x00,0x00,0x00,0x00,0x00,0x00,0x00,0x00,0x00,0x00,
0x00,0x00,0x00,0xe0,0x00,0x00,0x00,0x00,0x00,0x00,0x00,0x00,0x00,0x00,0xf0,
0x03,0x00,0x00,0x00,0x00,0x00,0x00,0x00,0x00,0x00,0xf0,0x0f,0x18,0x00,0x00,
0x00,0x00,0x00,0x00,0x00,0x00,0xf8,0x7f,0x3f,0x00,0x00,0x00,0x00,0x00,0x00,
0x00,0x00,0xf8,0xff,0x3f,0x00,0x00,0x00,0x00,0x00,0x00,0x00,0x00,0xf8,0xff,
0x3f,0x00,0x00,0x00,0x00,0x00,0x00,0x00,0x00,0xf8,0xff,0x1f,0x00,0x00,0x00,
0x00,0x00,0x00,0x00,0x00,0xc0,0xff,0x1f,0x00,0x00,0x00,0x00,0x00,0x00,0x00,
0x00,0xc0,0xff,0x1f,0x00,0x00,0x00,0x00,0x00,0x00,0x00,0x00,0xe0,0xff,0x0f,
0x00,0x00,0x00,0x00,0x00,0x00,0x00,0x00,0xe0,0xff,0x1f,0x00,0x00,0x00,0x00,
0x00,0x00,0x00,0x00,0xf0,0xff,0x1f,0x00,0x00,0x00,0x00,0x00,0x00,0x00,0x00,
0xf0,0xff,0x1f,0x00,0x00,0x00,0x00,0x00,0x00,0x00,0x00,0xf0,0xff,0x1f,0x00,
0x00,0x00,0x00,0x00,0x00,0x00,0x00,0xf8,0xff,0x1f,0x00,0x00,0x00,0x00,0x00,
0x00,0x00,0x00,0xf8,0xff,0x0f,0x00,0x00,0x00,0x00,0x00,0x00,0x88,0x00,0xf8,
0xff,0x07,0x00,0x00,0x00,0x00,0x00,0x00,0x9a,0x00,0xf8,0xff,0x01,0x00,0x00,
0x00,0x00,0x00,0x00,0x9f,0x00,0xfc,0xff,0x01,0x00,0x00,0x00,0x00,0x00,0x00,
0xff,0x00,0xfc,0xff,0x01,0x00,0x00,0x00,0x00,0x00,0x80,0xff,0x00,0xfc,0xff,
0x01,0x00,0x00,0x00,0x00,0x00,0x80,0xff,0x00,0xfc,0xff,0x03,0x00,0x00,0x00,
0x00,0x00,0x80,0xff,0x00,0xfe,0xff,0x07,0x00,0x00,0x00,0x00,0x00,0x00,0x7f,
0x00,0xfe,0xff,0x07,0x00,0x00,0x00,0x00,0x00,0x80,0x7f,0x00,0xff,0xff,0x0f,
0x00,0x00,0x00,0x00,0x00,0x80,0xff,0x80,0xff,0xff,0x0f,0x00,0x00,0x00,0x00,
0x00,0x80,0xff,0x80,0xff,0xff,0x1f,0x00,0x00,0x00,0x00,0x00,0x80,0xff,0xc0,
0xff,0xff,0x1f,0x00,0x00,0x00,0x00,0x00,0x00,0x7f,0xe0,0xff,0xff,0x3f,0x00,
0x00,0x00,0x00,0x00,0x00,0x7e,0xf0,0xff,0xff,0x3f,0x00,0x00,0x00,0x00,0x00,
0x00,0x1e,0xf0,0xff,0xff,0x3f,0x00,0x00,0x00,0x00,0x00,0x00,0x1f,0xd0,0xff,
0xff,0x3f,0x00,0x00,0x00,0x00,0x00,0xe0,0xff,0xc3,0xff,0xff,0x3f,0x00,0x00,
0x00,0x00,0x00,0x80,0xff,0xcf,0xff,0xff,0x3f,0x00,0x00,0x00,0x00,0x00,0x00,
0xfc,0xff,0xff,0xff,0x3f,0x00,0x00,0x00,0x00,0x00,0x00,0xc0,0xff,0xff,0xff,
0x3f,0x00,0x00,0x00,0x00,0x00,0x00,0x80,0xff,0xff,0xff,0x3f,0x00,0x00,0x00,
0x00,0x00,0x00,0x00,0xfe,0xff,0xff,0x7f,0x00,0x00,0x00,0x00,0x00,0x00,0x00,
0xf8,0xff,0xff,0xff,0x03,0x00,0x00,0x00,0x00,0x00,0x00,0xf8,0xff,0xff,0xff,
0x0f,0x00,0x00,0x00,0x00,0x00,0x00,0x98,0xff,0xff,0xf3,0x3f,0x00,0x00,0x00,
0x00,0x00,0x00,0x08,0xff,0xff,0xc7,0xff,0x0f,0x00,0x00,0x00,0x00,0x00,0x00,
0xf8,0xff,0x07,0xff,0x03,0x00,0x00,0x00,0x00,0x00,0x00,0xe0,0xff,0x07,0xfc,
0x07,0x00,0x00,0x00,0x00,0x00,0x00,0xe0,0xff,0x07,0xe0,0x1f,0x00,0x00,0x00,
0x00,0x00,0x00,0xe0,0xff,0x07,0xc0,0x3f,0x00,0x00,0x00,0x00,0x00,0x00,0xe0,
0xff,0x07,0x80,0x1f,0x00,0x00,0x00,0x00,0x00,0x00,0xf0,0xff,0x0f,0x00,0x03,
0x00,0x00,0x00,0x00,0x00,0x00,0xf0,0xff,0x0f,0x00,0x00,0x00,0x00,0x00,0x00,
0x00,0x00,0xf8,0xff,0x1f,0x00,0x00,0x00,0x00,0x00,0x00,0x00,0x00,0xf8,0xff,
0x1f,0x00,0x00,0x00,0x00,0x00,0x00,0x00,0x00,0xf8,0xff,0x1f,0x00,0x00,0x00,
0x00,0x00,0x00,0x00,0x00,0xfc,0xff,0x3f,0x00,0x00,0x00,0x00,0x00,0x00,0x00,
0x00,0xfc,0xff,0x3f,0x00,0x00,0x00,0x00,0x00,0x00,0x00,0x00,0xfc,0xff,0x3f,
0x00,0x00,0x00,0x00,0x00,0x00,0x00,0x00,0xfe,0xff,0x7f,0x00,0x00,0x00,0x00,
0x00,0x00,0x00,0x00,0xfe,0xff,0x7f,0x00,0x00,0x00,0x00,0x00,0x00,0x00,0x00,
0xfe,0xff,0x7f,0x00,0x00,0x00,0x00,0x00,0x00,0x00,0x00,0xfe,0xff,0xff,0x00,
0x00,0x00,0x00,0x00,0x00,0x00,0x00,0xff,0xff,0xff,0x00,0x00,0x00,0x00
};